<svg width="12" height="10" viewBox="0 0 12 10" fill="none" xmlns="http://www.w3.org/2000/svg">
<path fill-rule="evenodd" clip-rule="evenodd" d="M4.25283 8.6148L0.784691 5.63761C0.693085 5.56371 0.617054 5.4724 0.560998 5.36891C0.504941 5.26542 0.46996 5.15182 0.458111 5.03472C0.446262 4.91763 0.457778 4.79932 0.491966 4.6867C0.526155 4.57408 0.582353 4.46939 0.657298 4.37864C0.808962 4.19405 1.02747 4.07692 1.26516 4.05287C1.50285 4.02882 1.74039 4.0998 1.92596 4.25027L4.69479 6.65895L9.0794 1.31695C9.23106 1.13236 9.44957 1.01523 9.68726 0.991178C9.92495 0.967127 10.1625 1.03811 10.3481 1.18857C10.4397 1.26247 10.5157 1.35378 10.5718 1.45727C10.6278 1.56076 10.6628 1.67436 10.6746 1.79146C10.6865 1.90855 10.675 2.02686 10.6408 2.13948C10.6066 2.2521 10.5504 2.35679 10.4755 2.44754L5.5209 8.48649C5.36817 8.66927 5.14996 8.78502 4.91298 8.809C4.67601 8.83298 4.43907 8.76328 4.25283 8.6148Z" fill="#74B500"/>
</svg>
