<svg width="42" height="37" viewBox="0 0 42 37" fill="none" xmlns="http://www.w3.org/2000/svg">
<path d="M36.2358 13.3018H16.8364C16.4988 13.3018 16.2251 13.5755 16.2251 13.9131C16.2251 14.2507 16.4988 14.5244 16.8364 14.5244H36.2358C36.5734 14.5244 36.8472 14.2507 36.8472 13.9131C36.8472 13.5755 36.5734 13.3018 36.2358 13.3018Z" fill="white"/>
<path d="M36.2358 17.9746H16.8364C16.4988 17.9746 16.2251 18.2483 16.2251 18.5859C16.2251 18.9235 16.4988 19.1973 16.8364 19.1973H36.2358C36.5734 19.1973 36.8472 18.9235 36.8472 18.5859C36.8472 18.2483 36.5734 17.9746 36.2358 17.9746Z" fill="white"/>
<path d="M36.2358 22.6475H16.8364C16.4988 22.6475 16.2251 22.9212 16.2251 23.2588C16.2251 23.5964 16.4988 23.8701 16.8364 23.8701H36.2358C36.5734 23.8701 36.8472 23.5964 36.8472 23.2588C36.8472 22.9212 36.5734 22.6475 36.2358 22.6475Z" fill="white"/>
<path d="M38.1775 7.95508H14.8945C12.9339 7.95508 11.3389 9.55007 11.3389 11.5107V26.1513C11.3389 28.1119 12.9339 29.7069 14.8945 29.7069H31.2137C31.3882 29.7069 31.5504 29.7854 31.6586 29.9225L36.9286 36.5943C37.1363 36.8573 37.4394 37.0005 37.7567 37.0005C37.8746 37.0005 37.9946 36.9807 38.1123 36.9398C38.5465 36.789 38.8271 36.3946 38.8271 35.935V29.6462C40.4756 29.3383 41.7332 27.8808 41.7332 26.1513V11.5106C41.7332 9.55007 40.1382 7.95508 38.1775 7.95508ZM40.5105 26.1513C40.5105 27.421 39.4775 28.4672 38.2079 28.4833C37.8733 28.4876 37.6044 28.76 37.6044 29.0946V35.4773L32.6181 29.1646C32.2766 28.7322 31.7647 28.4842 31.2137 28.4842H14.8945C13.6081 28.4842 12.5615 27.4376 12.5615 26.1512V11.5106C12.5615 10.2242 13.608 9.17765 14.8945 9.17765H38.1775C39.4639 9.17765 40.5105 10.2242 40.5105 11.5106V26.1513Z" fill="white"/>
<path d="M9.00638 18.0633C8.58823 18.1226 8.21377 18.3379 7.95196 18.6693L3.75248 23.9859V18.6575C3.75248 18.3229 3.4835 18.0505 3.14898 18.0461C2.08682 18.0326 1.22265 17.1574 1.22265 16.0952V3.35019C1.22265 2.27401 2.09823 1.39843 3.17441 1.39843H23.443C24.5191 1.39843 25.3947 2.27401 25.3947 3.35019V5.70844C25.3947 6.04606 25.6684 6.31977 26.006 6.31977C26.3437 6.31977 26.6174 6.04606 26.6174 5.70844V3.35019C26.6174 1.59984 25.1933 0.175781 23.443 0.175781H3.17441C1.42406 0.175781 0 1.59984 0 3.35019V16.0952C0 17.6167 1.08987 18.9022 2.52991 19.2027V24.6122C2.52991 25.0465 2.79498 25.4192 3.2053 25.5617C3.31656 25.6003 3.42986 25.6191 3.54137 25.6191C3.84108 25.6191 4.12759 25.4836 4.32378 25.2352L8.9115 19.4272C8.97768 19.3433 9.07248 19.2888 9.17828 19.2738C9.51255 19.2263 9.7451 18.9168 9.69758 18.5826C9.65014 18.2483 9.34114 18.0156 9.00638 18.0633Z" fill="white"/>
</svg>
