<?xml version="1.0" encoding="UTF-8" standalone="no"?>
<svg
   xmlns:dc="http://purl.org/dc/elements/1.1/"
   xmlns:cc="http://creativecommons.org/ns#"
   xmlns:rdf="http://www.w3.org/1999/02/22-rdf-syntax-ns#"
   xmlns:svg="http://www.w3.org/2000/svg"
   xmlns="http://www.w3.org/2000/svg"
   xmlns:sodipodi="http://sodipodi.sourceforge.net/DTD/sodipodi-0.dtd"
   xmlns:inkscape="http://www.inkscape.org/namespaces/inkscape"
   width="28"
   height="28"
   viewBox="0 0 28 28"
   fill="none"
   version="1.1"
   id="svg4"
   sodipodi:docname="icon-play-white.svg"
   inkscape:version="1.0.2 (e86c870879, 2021-01-15, custom)">
  <metadata
     id="metadata10">
    <rdf:RDF>
      <cc:Work
         rdf:about="">
        <dc:format>image/svg+xml</dc:format>
        <dc:type
           rdf:resource="http://purl.org/dc/dcmitype/StillImage" />
        <dc:title />
      </cc:Work>
    </rdf:RDF>
  </metadata>
  <defs
     id="defs8" />
  <sodipodi:namedview
     pagecolor="#3a3a3a"
     bordercolor="#666666"
     borderopacity="1"
     objecttolerance="10"
     gridtolerance="10"
     guidetolerance="10"
     inkscape:pageopacity="0"
     inkscape:pageshadow="2"
     inkscape:window-width="1920"
     inkscape:window-height="1017"
     id="namedview6"
     showgrid="false"
     inkscape:zoom="26.428571"
     inkscape:cx="11"
     inkscape:cy="14"
     inkscape:window-x="-8"
     inkscape:window-y="-8"
     inkscape:window-maximized="1"
     inkscape:current-layer="svg4"
     inkscape:document-rotation="0" />
  <path
     fill-rule="evenodd"
     clip-rule="evenodd"
     d="M 26.3001,15.174 7.1100003,27.51 c -0.22014,0.1433 -0.47735,0.2191 -0.73999,0.218 -0.23027,-0.0015 -0.456715,-0.0587 -0.659977,-0.167 -0.214993,-0.118 -0.394325,-0.2917 -0.519226,-0.5028 -0.124901,-0.2111 -0.190805,-0.4519 -0.190796,-0.6972 V 1.68604 c -10e-4,-0.24635 0.06458,-0.4884 0.18982,-0.700533 0.12524,-0.212137 0.305489,-0.386478 0.521667,-0.504608 0.216178,-0.118129 0.460242,-0.175651 0.706422,-0.166473 0.24618,0.009178 0.4853,0.084699 0.69208,0.218597 L 26.3001,12.869 c 0.1932,0.1239 0.3521,0.2944 0.4622,0.4958 0.1102,0.2014 0.1679,0.4272 0.1679,0.6567 0,0.2296 -0.0577,0.4554 -0.1679,0.6568 -0.1101,0.2014 -0.269,0.3719 -0.4622,0.4957 z"
     fill="#ffffff"
     id="path2" />
</svg>
