<?xml version="1.0" encoding="UTF-8" standalone="no"?>
<svg
   xmlns:dc="http://purl.org/dc/elements/1.1/"
   xmlns:cc="http://creativecommons.org/ns#"
   xmlns:rdf="http://www.w3.org/1999/02/22-rdf-syntax-ns#"
   xmlns:svg="http://www.w3.org/2000/svg"
   xmlns="http://www.w3.org/2000/svg"
   xmlns:sodipodi="http://sodipodi.sourceforge.net/DTD/sodipodi-0.dtd"
   xmlns:inkscape="http://www.inkscape.org/namespaces/inkscape"
   width="73"
   height="14"
   viewBox="0 0 73 14"
   fill="none"
   version="1.1"
   id="svg12"
   sodipodi:docname="icon-stars-0.svg"
   inkscape:version="1.0.2 (e86c870879, 2021-01-15, custom)">
  <metadata
     id="metadata18">
    <rdf:RDF>
      <cc:Work
         rdf:about="">
        <dc:format>image/svg+xml</dc:format>
        <dc:type
           rdf:resource="http://purl.org/dc/dcmitype/StillImage" />
      </cc:Work>
    </rdf:RDF>
  </metadata>
  <defs
     id="defs16" />
  <sodipodi:namedview
     pagecolor="#ffffff"
     bordercolor="#666666"
     borderopacity="1"
     objecttolerance="10"
     gridtolerance="10"
     guidetolerance="10"
     inkscape:pageopacity="0"
     inkscape:pageshadow="2"
     inkscape:window-width="1920"
     inkscape:window-height="1017"
     id="namedview14"
     showgrid="false"
     inkscape:zoom="9.7348262"
     inkscape:cx="38.087102"
     inkscape:cy="15.550996"
     inkscape:window-x="-8"
     inkscape:window-y="-8"
     inkscape:window-maximized="1"
     inkscape:current-layer="svg12" />
  <path
     opacity="0.2"
     fill-rule="evenodd"
     clip-rule="evenodd"
     d="m 13.939223,5.4774799 c -0.0217,-0.06766 -0.0619,-0.1279 -0.1162,-0.17371 -0.0543,-0.04581 -0.1204,-0.07537 -0.1908,-0.08533 l -4.026,-0.583981 -1.8000003,-3.64801 c -0.0316,-0.0634 -0.0802,-0.11677 -0.1405,-0.154053 -0.0602,-0.03728 -0.1296,-0.05701 -0.2005,-0.05701 -0.0708,0 -0.1403,0.01972 -0.2005,0.05701 -0.0602,0.03728 -0.1089,0.09065 -0.1405,0.154053 l -1.8,3.64801 -4.027,0.583981 c -0.0701,0.01037 -0.136,0.0401 -0.1902,0.08588 -0.0542,0.04578 -0.0945,0.10577 -0.11639997,0.17322 -0.022,0.06745 -0.0246,0.13967 -0.0077,0.20856 0.0169,0.06888 0.0527,0.13169 0.10329997,0.18133 l 2.914,2.8380101 -0.688,4.00796 c -0.0119,0.07 -0.0041,0.1419 0.0227,0.2076 0.0268,0.0656 0.0715,0.1225 0.1289,0.1641 0.0575,0.0417 0.1254,0.0664 0.1962,0.0714 0.0707,0.005 0.1415,-0.0099 0.2042,-0.043 l 3.6,-1.893 3.6000003,1.893 c 0.0627,0.0331 0.1335,0.048 0.2043,0.043 0.0707,-0.005 0.1387,-0.0297 0.1961,-0.0714 0.0575,-0.0416 0.1021,-0.0985 0.1289,-0.1641 0.0268,-0.0657 0.0347,-0.1376 0.0227,-0.2076 l -0.688,-4.00796 2.914,-2.8380101 c 0.051,-0.04944 0.0871,-0.11215 0.1043,-0.18109 0.0171,-0.06894 0.0146,-0.14129 -0.0073,-0.20886 z"
     fill="#74b500"
     id="path849" />
  <path
     opacity="0.2"
     fill-rule="evenodd"
     clip-rule="evenodd"
     d="m 72.700196,5.47748 c -0.0217,-0.06766 -0.0619,-0.1279 -0.1162,-0.17371 -0.0543,-0.04581 -0.1204,-0.07537 -0.1908,-0.08533 l -4.026,-0.58398 -1.8,-3.64801 c -0.0316,-0.063404 -0.0802,-0.11677 -0.1405,-0.154053 -0.0602,-0.037282 -0.1296,-0.057006 -0.2005,-0.057006 -0.0708,0 -0.1403,0.019724 -0.2005,0.057006 -0.0602,0.037283 -0.1089,0.090649 -0.1405,0.154053 l -1.8,3.64801 -4.027,0.58398 c -0.0701,0.01037 -0.136,0.0401 -0.1902,0.08588 -0.0542,0.04578 -0.0945,0.10577 -0.1164,0.17322 -0.022,0.06745 -0.0246,0.13967 -0.0077,0.20856 0.0169,0.06888 0.0527,0.13169 0.1033,0.18133 l 2.914,2.83801 -0.688,4.00796 c -0.0119,0.07 -0.0041,0.1419 0.0227,0.2076 0.0268,0.0656 0.0715,0.1225 0.1289,0.1641 0.0575,0.0417 0.1254,0.0664 0.1962,0.0714 0.0707,0.005 0.1415,-0.0099 0.2042,-0.043 l 3.6,-1.893 3.6,1.893 c 0.0627,0.0331 0.1335,0.048 0.2043,0.043 0.0707,-0.005 0.1387,-0.0297 0.1961,-0.0714 0.0575,-0.0416 0.1021,-0.0985 0.1289,-0.1641 0.0268,-0.0657 0.0347,-0.1376 0.0227,-0.2076 l -0.688,-4.00796 2.914,-2.83801 c 0.051,-0.04944 0.0871,-0.11215 0.1043,-0.18109 0.0171,-0.06894 0.0146,-0.14129 -0.0073,-0.20886 z"
     fill="#74b500"
     id="path10" />
  <path
     opacity="0.2"
     fill-rule="evenodd"
     clip-rule="evenodd"
     d="m 58.009953,5.47748 c -0.0217,-0.06766 -0.0619,-0.1279 -0.1162,-0.17371 -0.0543,-0.04581 -0.1204,-0.07537 -0.1908,-0.08533 l -4.026,-0.5839804 -1.8,-3.64801 c -0.0316,-0.0634 -0.0802,-0.11677 -0.1405,-0.154053 -0.0602,-0.03728 -0.1296,-0.05701 -0.2005,-0.05701 -0.0708,0 -0.1403,0.01972 -0.2005,0.05701 -0.0602,0.03728 -0.1089,0.09065 -0.1405,0.154053 l -1.8,3.64801 -4.027,0.5839804 c -0.0701,0.01037 -0.136,0.0401 -0.1902,0.08588 -0.0542,0.04578 -0.0945,0.10577 -0.1164,0.17322 -0.022,0.06745 -0.0246,0.13967 -0.0077,0.20856 0.0169,0.06888 0.0527,0.13169 0.1033,0.18133 l 2.914,2.83801 -0.688,4.00796 c -0.0119,0.07 -0.0041,0.1419 0.0227,0.2076 0.0268,0.0656 0.0715,0.1225 0.1289,0.1641 0.0575,0.0417 0.1254,0.0664 0.1962,0.0714 0.0707,0.005 0.1415,-0.0099 0.2042,-0.043 l 3.6,-1.893 3.6,1.893 c 0.0627,0.0331 0.1335,0.048 0.2043,0.043 0.0707,-0.005 0.1387,-0.0297 0.1961,-0.0714 0.0575,-0.0416 0.1021,-0.0985 0.1289,-0.1641 0.0268,-0.0657 0.0347,-0.1376 0.0227,-0.2076 l -0.688,-4.00796 2.914,-2.83801 c 0.051,-0.04944 0.0871,-0.11215 0.1043,-0.18109 0.0171,-0.06894 0.0146,-0.14129 -0.0073,-0.20886 z"
     fill="#74b500"
     id="path843" />
  <path
     opacity="0.2"
     fill-rule="evenodd"
     clip-rule="evenodd"
     d="m 43.31971,5.47748 c -0.0217,-0.06766 -0.0619,-0.1279 -0.1162,-0.17371 -0.0543,-0.04581 -0.1204,-0.07537 -0.1908,-0.08533 l -4.026,-0.5839804 -1.8,-3.6480098 c -0.0316,-0.0634 -0.0802,-0.11677 -0.1405,-0.154053 -0.0602,-0.03728 -0.1296,-0.05701 -0.2005,-0.05701 -0.0708,0 -0.1403,0.01972 -0.2005,0.05701 -0.0602,0.03728 -0.1089,0.09065 -0.1405,0.154053 l -1.8,3.6480098 -4.027,0.5839804 c -0.0701,0.01037 -0.136,0.0401 -0.1902,0.08588 -0.0542,0.04578 -0.0945,0.10577 -0.1164,0.17322 -0.022,0.06745 -0.0246,0.13967 -0.0077,0.20856 0.0169,0.06888 0.0527,0.13169 0.1033,0.18133 l 2.914,2.83801 -0.688,4.00796 c -0.0119,0.07 -0.0041,0.1419 0.0227,0.2076 0.0268,0.0656 0.0715,0.1225 0.1289,0.1641 0.0575,0.0417 0.1254,0.0664 0.1962,0.0714 0.0707,0.005 0.1415,-0.0099 0.2042,-0.043 l 3.6,-1.893 3.6,1.893 c 0.0627,0.0331 0.1335,0.048 0.2043,0.043 0.0707,-0.005 0.1387,-0.0297 0.1961,-0.0714 0.0575,-0.0416 0.1021,-0.0985 0.1289,-0.1641 0.0268,-0.0657 0.0347,-0.1376 0.0227,-0.2076 l -0.688,-4.00796 2.914,-2.83801 c 0.051,-0.04944 0.0871,-0.11215 0.1043,-0.18109 0.0171,-0.06894 0.0146,-0.14129 -0.0073,-0.20886 z"
     fill="#74b500"
     id="path845" />
  <path
     opacity="0.2"
     fill-rule="evenodd"
     clip-rule="evenodd"
     d="m 28.629466,5.4774803 c -0.0217,-0.06766 -0.0619,-0.1279 -0.1162,-0.17371 -0.0543,-0.04581 -0.1204,-0.07537 -0.1908,-0.08533 l -4.026,-0.583981 -1.8,-3.64801 c -0.0316,-0.0634 -0.0802,-0.11677 -0.1405,-0.154053 -0.0602,-0.03728 -0.1296,-0.05701 -0.2005,-0.05701 -0.0708,0 -0.1403,0.01972 -0.2005,0.05701 -0.0602,0.03728 -0.1089,0.09065 -0.1405,0.154053 l -1.8,3.64801 -4.027,0.583981 c -0.0701,0.01037 -0.136,0.0401 -0.1902,0.08588 -0.0542,0.04578 -0.0945,0.10577 -0.1164,0.17322 -0.022,0.06745 -0.0246,0.13967 -0.0077,0.20856 0.0169,0.06888 0.0527,0.13169 0.1033,0.18133 l 2.914,2.8380097 -0.688,4.00796 c -0.0119,0.07 -0.0041,0.1419 0.0227,0.2076 0.0268,0.0656 0.0715,0.1225 0.1289,0.1641 0.0575,0.0417 0.1254,0.0664 0.1962,0.0714 0.0707,0.005 0.1415,-0.0099 0.2042,-0.043 l 3.6,-1.893 3.6,1.893 c 0.0627,0.0331 0.1335,0.048 0.2043,0.043 0.0707,-0.005 0.1387,-0.0297 0.1961,-0.0714 0.0575,-0.0416 0.1021,-0.0985 0.1289,-0.1641 0.0268,-0.0657 0.0347,-0.1376 0.0227,-0.2076 l -0.688,-4.00796 2.914,-2.8380097 c 0.051,-0.04944 0.0871,-0.11215 0.1043,-0.18109 0.0171,-0.06894 0.0146,-0.14129 -0.0073,-0.20886 z"
     fill="#74b500"
     id="path847" />
</svg>
