<?xml version="1.0" encoding="UTF-8" standalone="no"?>
<svg
   xmlns:dc="http://purl.org/dc/elements/1.1/"
   xmlns:cc="http://creativecommons.org/ns#"
   xmlns:rdf="http://www.w3.org/1999/02/22-rdf-syntax-ns#"
   xmlns:svg="http://www.w3.org/2000/svg"
   xmlns="http://www.w3.org/2000/svg"
   xmlns:sodipodi="http://sodipodi.sourceforge.net/DTD/sodipodi-0.dtd"
   xmlns:inkscape="http://www.inkscape.org/namespaces/inkscape"
   width="73"
   height="14"
   viewBox="0 0 73 14"
   fill="none"
   version="1.1"
   id="svg12"
   sodipodi:docname="icon-stars-1.svg"
   inkscape:version="1.0.2 (e86c870879, 2021-01-15, custom)">
  <metadata
     id="metadata18">
    <rdf:RDF>
      <cc:Work
         rdf:about="">
        <dc:format>image/svg+xml</dc:format>
        <dc:type
           rdf:resource="http://purl.org/dc/dcmitype/StillImage" />
      </cc:Work>
    </rdf:RDF>
  </metadata>
  <defs
     id="defs16" />
  <sodipodi:namedview
     pagecolor="#ffffff"
     bordercolor="#666666"
     borderopacity="1"
     objecttolerance="10"
     gridtolerance="10"
     guidetolerance="10"
     inkscape:pageopacity="0"
     inkscape:pageshadow="2"
     inkscape:window-width="1920"
     inkscape:window-height="1017"
     id="namedview14"
     showgrid="false"
     inkscape:zoom="13.767123"
     inkscape:cx="36.50186"
     inkscape:cy="7.0059404"
     inkscape:window-x="-8"
     inkscape:window-y="-8"
     inkscape:window-maximized="1"
     inkscape:current-layer="svg12" />
  <path
     fill-rule="evenodd"
     clip-rule="evenodd"
     d="M13.939 5.47748C13.917 5.41 13.8766 5.34996 13.8224 5.3042C13.7681 5.25844 13.7022 5.22874 13.632 5.21844L9.60498 4.63446L7.80498 0.98645C7.77338 0.923046 7.72474 0.86968 7.66451 0.832397C7.60427 0.795115 7.53483 0.775391 7.46399 0.775391C7.39315 0.775391 7.32371 0.795115 7.26347 0.832397C7.20324 0.86968 7.15459 0.923046 7.12299 0.98645L5.32298 4.63446L1.29698 5.21844C1.22682 5.22881 1.16094 5.25854 1.10677 5.30432C1.05259 5.3501 1.01227 5.41009 0.990343 5.47754C0.968414 5.54499 0.965756 5.61721 0.982652 5.6861C0.999549 5.75498 1.03533 5.81779 1.08598 5.86743L3.99999 8.70544L3.31299 12.7134C3.30368 12.7681 3.30639 12.824 3.32094 12.8775C3.33549 12.931 3.36153 12.9806 3.39723 13.0229C3.43293 13.0653 3.47743 13.0994 3.52765 13.1228C3.57787 13.1462 3.63259 13.1584 3.68799 13.1584C3.74966 13.1581 3.81035 13.143 3.86499 13.1144L7.46498 11.2214L11.065 13.1144C11.1278 13.1474 11.1985 13.1623 11.2693 13.1572C11.3401 13.1522 11.408 13.1275 11.4655 13.0859C11.523 13.0443 11.5677 12.9875 11.5946 12.9219C11.6216 12.8563 11.6297 12.7844 11.618 12.7145L10.93 8.70642L13.843 5.86847C13.894 5.81883 13.9301 5.75584 13.947 5.68671C13.964 5.61758 13.9612 5.5451 13.939 5.47748Z"
     fill="#74B500"
     id="path2" />
  <path
     opacity="0.2"
     fill-rule="evenodd"
     clip-rule="evenodd"
     d="M72.7002 5.47748C72.6785 5.40982 72.6383 5.34958 72.584 5.30377C72.5297 5.25796 72.4636 5.2284 72.3932 5.21844L68.3672 4.63446L66.5672 0.98645C66.5356 0.923046 66.487 0.86968 66.4267 0.832397C66.3665 0.795115 66.2971 0.775391 66.2262 0.775391C66.1554 0.775391 66.0859 0.795115 66.0257 0.832397C65.9655 0.86968 65.9168 0.923046 65.8852 0.98645L64.0852 4.63446L60.0582 5.21844C59.9881 5.22881 59.9222 5.25854 59.868 5.30432C59.8138 5.3501 59.7735 5.41009 59.7516 5.47754C59.7296 5.54499 59.727 5.61721 59.7439 5.6861C59.7608 5.75498 59.7966 5.81779 59.8472 5.86743L62.7612 8.70544L62.0732 12.7134C62.0613 12.7834 62.0691 12.8553 62.0959 12.921C62.1227 12.9866 62.1674 13.0435 62.2248 13.0851C62.2823 13.1268 62.3502 13.1515 62.421 13.1565C62.4917 13.1615 62.5625 13.1466 62.6252 13.1135L66.2252 11.2205L69.8252 13.1135C69.8879 13.1466 69.9587 13.1615 70.0295 13.1565C70.1002 13.1515 70.1682 13.1268 70.2256 13.0851C70.2831 13.0435 70.3277 12.9866 70.3545 12.921C70.3813 12.8553 70.3892 12.7834 70.3772 12.7134L69.6892 8.70544L72.6032 5.86743C72.6542 5.81799 72.6903 5.75528 72.7075 5.68634C72.7246 5.6174 72.7221 5.54505 72.7002 5.47748Z"
     fill="#74B500"
     id="path10"
     style="opacity:1;fill:#e3f0cc;fill-opacity:1" />
  <path
     opacity="0.2"
     fill-rule="evenodd"
     clip-rule="evenodd"
     d="m 57.886449,5.47748 c -0.0217,-0.06766 -0.0619,-0.1279 -0.1162,-0.17371 -0.0543,-0.04581 -0.1204,-0.07537 -0.1908,-0.08533 l -4.026,-0.58398 -1.8,-3.64801 c -0.0316,-0.0634 -0.0802,-0.11677 -0.1405,-0.154053 -0.0602,-0.03728 -0.1296,-0.05701 -0.2005,-0.05701 -0.0708,0 -0.1403,0.01972 -0.2005,0.05701 -0.0602,0.03728 -0.1089,0.09065 -0.1405,0.154053 l -1.8,3.64801 -4.027,0.58398 c -0.0701,0.01037 -0.136,0.0401 -0.1902,0.08588 -0.0542,0.04578 -0.0945,0.10577 -0.1164,0.17322 -0.022,0.06745 -0.0246,0.13967 -0.0077,0.20856 0.0169,0.06888 0.0527,0.13169 0.1033,0.18133 l 2.914,2.83801 -0.688,4.00796 c -0.0119,0.07 -0.0041,0.1419 0.0227,0.2076 0.0268,0.0656 0.0715,0.1225 0.1289,0.1641 0.0575,0.0417 0.1254,0.0664 0.1962,0.0714 0.0707,0.005 0.1415,-0.0099 0.2042,-0.043 l 3.6,-1.893 3.6,1.893 c 0.0627,0.0331 0.1335,0.048 0.2043,0.043 0.0707,-0.005 0.1387,-0.0297 0.1961,-0.0714 0.0575,-0.0416 0.1021,-0.0985 0.1289,-0.1641 0.0268,-0.0657 0.0347,-0.1376 0.0227,-0.2076 l -0.688,-4.00796 2.914,-2.83801 c 0.051,-0.04944 0.0871,-0.11215 0.1043,-0.18109 0.0171,-0.06894 0.0146,-0.14129 -0.0073,-0.20886 z"
     fill="#74B500"
     id="path849"
     style="opacity:1;fill:#e3f0cc;fill-opacity:1" />
  <path
     opacity="0.2"
     fill-rule="evenodd"
     clip-rule="evenodd"
     d="m 43.072701,5.47748 c -0.0217,-0.06766 -0.0619,-0.1279 -0.1162,-0.17371 -0.0543,-0.04581 -0.1204,-0.07537 -0.1908,-0.08533 l -4.026,-0.58398 -1.8,-3.64801 c -0.0316,-0.0634 -0.0802,-0.11677 -0.1405,-0.154053 -0.0602,-0.03728 -0.1296,-0.05701 -0.2005,-0.05701 -0.0708,0 -0.1403,0.01972 -0.2005,0.05701 -0.0602,0.03728 -0.1089,0.09065 -0.1405,0.154053 l -1.8,3.64801 -4.027,0.58398 c -0.0701,0.01037 -0.136,0.0401 -0.1902,0.08588 -0.0542,0.04578 -0.0945,0.10577 -0.1164,0.17322 -0.022,0.06745 -0.0246,0.13967 -0.0077,0.20856 0.0169,0.06888 0.0527,0.13169 0.1033,0.18133 l 2.914,2.83801 -0.688,4.00796 c -0.0119,0.07 -0.0041,0.1419 0.0227,0.2076 0.0268,0.0656 0.0715,0.1225 0.1289,0.1641 0.0575,0.0417 0.1254,0.0664 0.1962,0.0714 0.0707,0.005 0.1415,-0.0099 0.2042,-0.043 l 3.6,-1.893 3.6,1.893 c 0.0627,0.0331 0.1335,0.048 0.2043,0.043 0.0707,-0.005 0.1387,-0.0297 0.1961,-0.0714 0.0575,-0.0416 0.1021,-0.0985 0.1289,-0.1641 0.0268,-0.0657 0.0347,-0.1376 0.0227,-0.2076 l -0.688,-4.00796 2.914,-2.83801 c 0.051,-0.04944 0.0871,-0.11215 0.1043,-0.18109 0.0171,-0.06894 0.0146,-0.14129 -0.0073,-0.20886 z"
     fill="#74B500"
     id="path851"
     style="opacity:1;fill:#e3f0cc;fill-opacity:1" />
  <path
     opacity="0.2"
     fill-rule="evenodd"
     clip-rule="evenodd"
     d="m 28.258953,5.47748 c -0.0217,-0.06766 -0.0619,-0.1279 -0.1162,-0.17371 -0.0543,-0.04581 -0.1204,-0.07537 -0.1908,-0.08533 l -4.026,-0.58398 -1.8,-3.64801 c -0.0316,-0.0634 -0.0802,-0.11677 -0.1405,-0.154053 -0.0602,-0.03728 -0.1296,-0.05701 -0.2005,-0.05701 -0.0708,0 -0.1403,0.01972 -0.2005,0.05701 -0.0602,0.03728 -0.1089,0.09065 -0.1405,0.154053 l -1.8,3.64801 -4.027,0.58398 c -0.0701,0.01037 -0.136,0.0401 -0.1902,0.08588 -0.0542,0.04578 -0.0945,0.10577 -0.1164,0.17322 -0.022,0.06745 -0.0246,0.13967 -0.0077,0.20856 0.0169,0.06888 0.0527,0.13169 0.1033,0.18133 l 2.914,2.83801 -0.688,4.00796 c -0.0119,0.07 -0.0041,0.1419 0.0227,0.2076 0.0268,0.0656 0.0715,0.1225 0.1289,0.1641 0.0575,0.0417 0.1254,0.0664 0.1962,0.0714 0.0707,0.005 0.1415,-0.0099 0.2042,-0.043 l 3.6,-1.893 3.6,1.893 c 0.0627,0.0331 0.1335,0.048 0.2043,0.043 0.0707,-0.005 0.1387,-0.0297 0.1961,-0.0714 0.0575,-0.0416 0.1021,-0.0985 0.1289,-0.1641 0.0268,-0.0657 0.0347,-0.1376 0.0227,-0.2076 l -0.688,-4.00796 2.914,-2.83801 c 0.051,-0.04944 0.0871,-0.11215 0.1043,-0.18109 0.0171,-0.06894 0.0146,-0.14129 -0.0073,-0.20886 z"
     fill="#74B500"
     id="path853"
     style="opacity:1;fill:#e3f0cc;fill-opacity:1" />
</svg>
