<?xml version="1.0" encoding="UTF-8" standalone="no"?>
<svg
   xmlns:dc="http://purl.org/dc/elements/1.1/"
   xmlns:cc="http://creativecommons.org/ns#"
   xmlns:rdf="http://www.w3.org/1999/02/22-rdf-syntax-ns#"
   xmlns:svg="http://www.w3.org/2000/svg"
   xmlns="http://www.w3.org/2000/svg"
   xmlns:sodipodi="http://sodipodi.sourceforge.net/DTD/sodipodi-0.dtd"
   xmlns:inkscape="http://www.inkscape.org/namespaces/inkscape"
   width="20"
   height="20"
   viewBox="0 0 20 20"
   fill="none"
   version="1.1"
   id="svg4"
   sodipodi:docname="icon-social-pinterest.svg"
   inkscape:version="1.0.2 (e86c870879, 2021-01-15, custom)">
  <metadata
     id="metadata10">
    <rdf:RDF>
      <cc:Work
         rdf:about="">
        <dc:format>image/svg+xml</dc:format>
        <dc:type
           rdf:resource="http://purl.org/dc/dcmitype/StillImage" />
        <dc:title></dc:title>
      </cc:Work>
    </rdf:RDF>
  </metadata>
  <defs
     id="defs8" />
  <sodipodi:namedview
     pagecolor="#ffffff"
     bordercolor="#666666"
     borderopacity="1"
     objecttolerance="10"
     gridtolerance="10"
     guidetolerance="10"
     inkscape:pageopacity="0"
     inkscape:pageshadow="2"
     inkscape:window-width="1920"
     inkscape:window-height="1017"
     id="namedview6"
     showgrid="false"
     inkscape:zoom="38.947368"
     inkscape:cx="8"
     inkscape:cy="9.5"
     inkscape:window-x="-8"
     inkscape:window-y="-8"
     inkscape:window-maximized="1"
     inkscape:current-layer="svg4" />
  <path
     fill-rule="evenodd"
     clip-rule="evenodd"
     d="m 11.428486,13.908744 c -0.49521,0.0412 -0.99284,-0.042 -1.4477495,-0.242 -0.45491,-0.1999 -0.85269,-0.5103 -1.15723,-0.903 0,0 -0.62,2.42 -0.75,2.887 -0.43217,1.2514 -1.08409,2.4156 -1.92505,3.438 -0.01661,0.022 -0.03924,0.0387 -0.06518,0.0481 -0.02594,0.0093 -0.05405,0.0109 -0.08087,0.0045 -0.02683,-0.0063 -0.05121,-0.0204 -0.07019,-0.0404 -0.01899,-0.02 -0.03178,-0.045 -0.03675,-0.0722 -0.221,-1.3224 -0.21051,-2.6731 0.03101,-3.992 0.2,-0.853 1.35998,-5.8999603 1.35998,-5.8999603 -0.24274,-0.45585 -0.35647,-0.96928 -0.32897,-1.48499 0,-1.558 0.91698,-2.62402 2.05798,-2.62402 0.19646,-0.01563 0.39397,0.01235 0.57837,0.08191 0.1844,0.06956 0.35115,0.179 0.4883395,0.32049 0.137191,0.14149 0.24146,0.31153 0.3053,0.49799 0.06384,0.18646 0.08571,0.38474 0.06402,0.58062 -0.20549,1.26773 -0.5199995,2.51536 -0.9399995,3.7290103 -0.06024,0.24371 -0.06084,0.49835 -0.00177,0.74235 0.05907,0.244 0.17603,0.4701 0.34107,0.6593 0.1650295,0.1892 0.3732695,0.3358 0.6069895,0.4274 0.23372,0.0916 0.486091,0.1255 0.735721,0.0989 2.01998,0 3.38098,-2.4619503 3.38098,-5.4919503 0,-2.3 -1.574,-4.08001 -4.43701,-4.08001 -0.6918205,-0.04217 -1.3846405,0.0644 -2.0318005,0.31253 -0.64716,0.24813 -1.23362,0.63207 -1.71991,1.12594 -0.48629,0.49387 -0.86109,1.0862 -1.09918,1.73712 -0.2381,0.65093 -0.33393,1.34533 -0.28107,2.03641 -0.01742,0.35268 0.03546,0.70529 0.15564,1.03732 0.12018,0.33204 0.30519,0.63685 0.54431,0.89667 0.08525,0.06837 0.14621,0.16242 0.17377,0.2681603 0.02756,0.10575 0.02027,0.21756 -0.02075,0.31885 -0.052,0.192 -0.27699,0.65896 -0.32599,0.84196 -0.00975,0.0573 -0.03292,0.1115 -0.06763,0.1581 -0.03471,0.0466 -0.07999,0.0843 -0.13208,0.1101 -0.05209,0.0257 -0.10956,0.0388 -0.16766,0.0381 -0.05811,-8e-4 -0.11519,-0.0152 -0.16663,-0.0423 -1.49,-0.59997 -2.182983,-2.2069603 -2.182983,-4.0149603 0,-2.983 2.552993,-6.56298685 7.6199925,-6.56298685 4.06998,0 6.74898,2.89998685 6.74898,6.01998685 -0.004,4.1179603 -2.328999,7.0339603 -5.756,7.0339603 z"
     fill="#ffffff"
     id="path2" />
</svg>
