<svg width="21" height="29" viewBox="0 0 21 29" fill="none" xmlns="http://www.w3.org/2000/svg">
<path d="M9.94443 2.1619C9.88912 1.35739 9.6821 0.945312 8.78283 0.945312C7.38676 0.945312 4.61919 1.79318 3.49474 2.4505C2.99877 2.74188 2.56286 3.34665 2.87844 3.82901C3.00929 4.03259 8.57127 13.5448 9.00491 14.0128C9.30893 14.3416 9.69324 14.4471 10.0286 14.3623C10.3708 14.2756 10.641 13.9887 10.7525 13.5944C10.9174 13.0112 9.95991 2.32703 9.94443 2.1619Z" fill="#C32225"/>
<path d="M8.65919 17.3282C8.62905 16.8345 8.40676 16.4963 7.99954 16.3216C7.99954 16.3216 2.69824 14.3892 1.77193 14.0495C1.10899 13.81 0.679681 14.3686 0.507546 15.073C0.225608 16.2246 0.133555 18.3173 0.444802 19.5973C0.572974 20.1219 0.995055 20.4503 1.49784 20.3354C5.78284 19.3356 7.01008 18.7706 7.97622 18.4952C8.42451 18.3461 8.69262 17.8877 8.65919 17.3282Z" fill="#C32225"/>
<path d="M20.7126 12.4887C20.2875 11.3633 19.2677 9.80215 18.4375 9.0079C18.0076 8.59454 17.3265 8.36554 16.9385 8.82761C16.3127 9.63959 13.5075 13.6771 12.7474 14.8966C12.2136 15.7528 13.044 16.8026 14.012 16.5945C14.2551 16.5394 19.9019 14.2094 20.2286 14.1205C20.9465 13.927 20.9855 13.2099 20.7126 12.4887Z" fill="#C32225"/>
<path d="M20.1672 21.8832L14.2987 18.895C13.2781 18.5427 12.4758 19.7454 12.9761 20.5948C13.5229 21.5255 16.4063 26.6478 16.4799 26.7452C17.025 27.4664 17.5227 27.3615 18.2017 26.7762C19.0605 26.0349 20.1493 24.6019 20.6285 23.5808C21.0178 22.752 20.9796 22.2237 20.1672 21.8832Z" fill="#C32225"/>
<path d="M5.8359 27.6503C6.80349 28.2085 8.70936 28.9447 9.71245 28.9447C10.3704 28.9447 10.5583 28.6475 10.5597 27.9693C10.5614 27.4444 10.5622 24.4289 10.5597 21.0955C10.5583 20.1543 9.46064 19.611 8.80492 20.4168C8.80492 20.4168 5.36346 25.5047 5.03364 25.9704C4.53767 26.6672 5.10237 27.2261 5.8359 27.6503Z" fill="#C32225"/>
</svg>
