<svg width="27" height="12" viewBox="0 0 27 12" fill="none" xmlns="http://www.w3.org/2000/svg">
<path fill-rule="evenodd" clip-rule="evenodd" d="M0.501441 6.0505L4.86944 1.17063C4.93502 1.09688 5.01405 1.03743 5.10199 0.995699C5.18993 0.953972 5.28503 0.930795 5.38174 0.927535C5.47846 0.924275 5.5749 0.940996 5.66545 0.976706C5.756 1.01242 5.83886 1.06642 5.90926 1.13558C6.0525 1.2756 6.13678 1.46864 6.14366 1.67259C6.15053 1.87655 6.07944 2.07483 5.94595 2.22417L2.08223 6.54132L6.22793 10.5896C6.37117 10.7296 6.45546 10.9227 6.46233 11.1266C6.46921 11.3306 6.39812 11.5288 6.26463 11.6782C6.19904 11.7519 6.12001 11.8114 6.03207 11.8531C5.94413 11.8949 5.84904 11.918 5.75232 11.9213C5.6556 11.9246 5.55916 11.9078 5.46861 11.8721C5.37806 11.8364 5.29521 11.7824 5.2248 11.7132L0.538118 7.13859C0.396418 6.99777 0.313252 6.80506 0.306398 6.60172C0.299544 6.39838 0.369545 6.20054 0.501441 6.0505Z" fill="#74B500"/>
<path fill-rule="evenodd" clip-rule="evenodd" d="M26.0912 7.04435L21.5613 11.7743C21.4932 11.8458 21.4123 11.9026 21.323 11.9413C21.2337 11.98 21.1378 12 21.0411 12C20.9443 12 20.8485 11.98 20.7592 11.9413C20.6699 11.9026 20.5889 11.8458 20.5209 11.7743C20.3824 11.6295 20.3047 11.4338 20.3047 11.2297C20.3047 11.0256 20.3824 10.8299 20.5209 10.6851L24.5278 6.50056L20.5209 2.31491C20.3824 2.17014 20.3047 1.97437 20.3047 1.7703C20.3047 1.56624 20.3824 1.37046 20.5209 1.2257C20.5889 1.1542 20.6699 1.09744 20.7592 1.0587C20.8485 1.01996 20.9443 1 21.0411 1C21.1378 1 21.2337 1.01996 21.323 1.0587C21.4123 1.09744 21.4932 1.1542 21.5613 1.2257L26.0912 5.95565C26.2281 6.10116 26.3047 6.29656 26.3047 6.50002C26.3047 6.70347 26.2281 6.89884 26.0912 7.04435Z" fill="#74B500"/>
</svg>
