<?xml version="1.0" encoding="UTF-8" standalone="no"?>
<svg
   xmlns:dc="http://purl.org/dc/elements/1.1/"
   xmlns:cc="http://creativecommons.org/ns#"
   xmlns:rdf="http://www.w3.org/1999/02/22-rdf-syntax-ns#"
   xmlns:svg="http://www.w3.org/2000/svg"
   xmlns="http://www.w3.org/2000/svg"
   xmlns:sodipodi="http://sodipodi.sourceforge.net/DTD/sodipodi-0.dtd"
   xmlns:inkscape="http://www.inkscape.org/namespaces/inkscape"
   width="20"
   height="20"
   viewBox="0 0 20 20"
   fill="none"
   version="1.1"
   id="svg4"
   sodipodi:docname="icon-social-phone.svg"
   inkscape:version="1.0.2 (e86c870879, 2021-01-15, custom)">
  <metadata
     id="metadata10">
    <rdf:RDF>
      <cc:Work
         rdf:about="">
        <dc:format>image/svg+xml</dc:format>
        <dc:type
           rdf:resource="http://purl.org/dc/dcmitype/StillImage" />
        <dc:title></dc:title>
      </cc:Work>
    </rdf:RDF>
  </metadata>
  <defs
     id="defs8" />
  <sodipodi:namedview
     pagecolor="#ffffff"
     bordercolor="#666666"
     borderopacity="1"
     objecttolerance="10"
     gridtolerance="10"
     guidetolerance="10"
     inkscape:pageopacity="0"
     inkscape:pageshadow="2"
     inkscape:window-width="1920"
     inkscape:window-height="1017"
     id="namedview6"
     showgrid="false"
     inkscape:zoom="67.272727"
     inkscape:cx="6"
     inkscape:cy="5.5"
     inkscape:window-x="-8"
     inkscape:window-y="-8"
     inkscape:window-maximized="1"
     inkscape:current-layer="svg4" />
  <path
     fill-rule="evenodd"
     clip-rule="evenodd"
     d="m 14.514516,11.678479 c -0.65161,0.0012 -1.29917,-0.10211 -1.91803,-0.306 -0.14542,-0.04659 -0.30046,-0.05449 -0.44986,-0.02292 -0.1494,0.03156 -0.288,0.10149 -0.40214,0.20291 l -1.209,0.91299 c -1.2990102,-0.64803 -2.3519802,-1.701 -3.0000002,-3 l 0.886,-1.17798 c 0.11321,-0.11277 0.1931,-0.25461 0.23086,-0.40988 0.03776,-0.15527 0.03193,-0.31795 -0.01686,-0.47012 -0.20393,-0.61957 -0.30757,-1.26775 -0.307,-1.92001 0,-0.228805 -0.09076,-0.44826 -0.25235,-0.610234 -0.1616,-0.161974 -0.38085,-0.253224 -0.60965,-0.253754 h -1.98 c -0.22897,2.66e-4 -0.448483,0.091416 -0.610298,0.253418 -0.161815,0.162003 -0.252709,0.381592 -0.252709,0.61057 0.00291,2.62217 1.045997,5.1361 2.900347,6.99008 1.85435,1.85397 4.3684802,2.89657 6.9906902,2.89897 0.2285,-3e-4 0.4476,-0.0912 0.6092,-0.2528 0.1616,-0.1616 0.2525,-0.3807 0.2528,-0.6092 v -1.97005 c 4e-4,-0.1135 -0.0216,-0.22594 -0.0648,-0.33093 -0.0431,-0.10499 -0.1065,-0.20044 -0.1866,-0.28088 -0.0801,-0.08045 -0.1752,-0.14431 -0.28,-0.18793 -0.1048,-0.04362 -0.2171,-0.06612 -0.3306,-0.06625 z"
     fill="#ffffff"
     id="path2" />
</svg>
