<?xml version="1.0" encoding="UTF-8" standalone="no"?>
<svg
   xmlns:dc="http://purl.org/dc/elements/1.1/"
   xmlns:cc="http://creativecommons.org/ns#"
   xmlns:rdf="http://www.w3.org/1999/02/22-rdf-syntax-ns#"
   xmlns:svg="http://www.w3.org/2000/svg"
   xmlns="http://www.w3.org/2000/svg"
   xmlns:sodipodi="http://sodipodi.sourceforge.net/DTD/sodipodi-0.dtd"
   xmlns:inkscape="http://www.inkscape.org/namespaces/inkscape"
   width="20"
   height="20"
   viewBox="0 0 20 20"
   fill="none"
   version="1.1"
   id="svg4"
   sodipodi:docname="icon-social-twitter.svg"
   inkscape:version="1.0.2 (e86c870879, 2021-01-15, custom)">
  <metadata
     id="metadata10">
    <rdf:RDF>
      <cc:Work
         rdf:about="">
        <dc:format>image/svg+xml</dc:format>
        <dc:type
           rdf:resource="http://purl.org/dc/dcmitype/StillImage" />
        <dc:title></dc:title>
      </cc:Work>
    </rdf:RDF>
  </metadata>
  <defs
     id="defs8" />
  <sodipodi:namedview
     pagecolor="#ffffff"
     bordercolor="#666666"
     borderopacity="1"
     objecttolerance="10"
     gridtolerance="10"
     guidetolerance="10"
     inkscape:pageopacity="0"
     inkscape:pageshadow="2"
     inkscape:window-width="1920"
     inkscape:window-height="1017"
     id="namedview6"
     showgrid="false"
     inkscape:zoom="56.923077"
     inkscape:cx="8.5"
     inkscape:cy="6.5"
     inkscape:window-x="-8"
     inkscape:window-y="-8"
     inkscape:window-maximized="1"
     inkscape:current-layer="svg4" />
  <path
     fill-rule="evenodd"
     clip-rule="evenodd"
     d="m 17.922504,5.1060912 c -0.5938,0.26221 -1.2234,0.43442 -1.868,0.51099 0.6782,-0.40414 1.1864,-1.041 1.43,-1.791993 -0.6386,0.376993 -1.3364,0.642785 -2.064,0.786013 -0.4463,-0.473338 -1.0241,-0.802136 -1.659,-0.944003 -0.6349,-0.1418668 -1.2978,-0.090316 -1.90306,0.148041 -0.60531,0.238357 -1.12529,0.652575 -1.49298,1.189242 -0.3677,0.53666 -0.56623,1.17118 -0.56995,1.82171 -2.5e-4,0.24846 0.02823,0.49609 0.08496,0.73798 -1.29109,-0.06432 -2.55437,-0.3985 -3.70837,-0.98102 -1.15401,-0.58251 -2.17307,-1.40042 -2.99158,-2.400969 -0.415737,0.712599 -0.543084,1.557269 -0.355835,2.360749 0.187245,0.80348 0.674855,1.50487 1.362795,1.96027 -0.51631,-0.0162 -1.02126,-0.1554 -1.472964,-0.40601 v 0.04199 c 0.00144,0.74881 0.261924,1.47406 0.737304,2.0526098 0.47539,0.57856 1.13635,0.97478 1.87067,1.1214 -0.47923,0.12904 -0.98146,0.14783 -1.469,0.055 0.20904,0.64433 0.61405,1.2073 1.15851,1.61032 0.54447,0.40301 1.20119,0.62596 1.87848,0.63766 -1.15279,0.9005 -2.57418,1.3885 -4.036987,1.386 -0.259358,4e-4 -0.518501,-0.015 -0.776001,-0.046 1.395408,0.8914 3.004448,1.392 4.659238,1.4496 1.6548,0.0576 3.29472,-0.3299 4.74872,-1.1221 1.45405,-0.7922 2.66885,-1.96002 3.51775,-3.38167 0.8488,-1.42165 1.3006,-3.0450298 1.3083,-4.7008098 0,-0.14 0,-0.28 -0.009,-0.419 0.6351,-0.45828 1.1836,-1.02576 1.62,-1.676 z"
     fill="#ffffff"
     id="path2" />
</svg>
