<svg width="73" height="14" viewBox="0 0 73 14" fill="none" xmlns="http://www.w3.org/2000/svg">
<path fill-rule="evenodd" clip-rule="evenodd" d="M13.939 5.47748C13.917 5.41 13.8766 5.34996 13.8224 5.3042C13.7681 5.25844 13.7022 5.22874 13.632 5.21844L9.60498 4.63446L7.80498 0.98645C7.77338 0.923046 7.72474 0.86968 7.66451 0.832397C7.60427 0.795115 7.53483 0.775391 7.46399 0.775391C7.39315 0.775391 7.32371 0.795115 7.26347 0.832397C7.20324 0.86968 7.15459 0.923046 7.12299 0.98645L5.32298 4.63446L1.29698 5.21844C1.22682 5.22881 1.16094 5.25854 1.10677 5.30432C1.05259 5.3501 1.01227 5.41009 0.990343 5.47754C0.968414 5.54499 0.965756 5.61721 0.982652 5.6861C0.999549 5.75498 1.03533 5.81779 1.08598 5.86743L3.99999 8.70544L3.31299 12.7134C3.30368 12.7681 3.30639 12.824 3.32094 12.8775C3.33549 12.931 3.36153 12.9806 3.39723 13.0229C3.43293 13.0653 3.47743 13.0994 3.52765 13.1228C3.57787 13.1462 3.63259 13.1584 3.68799 13.1584C3.74966 13.1581 3.81035 13.143 3.86499 13.1144L7.46498 11.2214L11.065 13.1144C11.1278 13.1474 11.1985 13.1623 11.2693 13.1572C11.3401 13.1522 11.408 13.1275 11.4655 13.0859C11.523 13.0443 11.5677 12.9875 11.5946 12.9219C11.6216 12.8563 11.6297 12.7844 11.618 12.7145L10.93 8.70642L13.843 5.86847C13.894 5.81883 13.9301 5.75584 13.947 5.68671C13.964 5.61758 13.9612 5.5451 13.939 5.47748Z" fill="#74B500"/>
<path fill-rule="evenodd" clip-rule="evenodd" d="M28.2591 5.47748C28.2374 5.40982 28.1971 5.34958 28.1428 5.30377C28.0885 5.25796 28.0224 5.2284 27.9521 5.21844L23.9261 4.63446L22.1261 0.98645C22.0945 0.923046 22.0458 0.86968 21.9856 0.832397C21.9254 0.795115 21.8559 0.775391 21.7851 0.775391C21.7142 0.775391 21.6448 0.795115 21.5846 0.832397C21.5243 0.86968 21.4757 0.923046 21.4441 0.98645L19.6441 4.63446L15.6171 5.21844C15.5468 5.22862 15.4808 5.25828 15.4265 5.30408C15.3722 5.34987 15.3318 5.40997 15.31 5.47754C15.2881 5.54511 15.2856 5.61748 15.3028 5.6864C15.3199 5.75532 15.3561 5.81801 15.4071 5.86743L18.3201 8.70544L17.6321 12.7134C17.6201 12.7834 17.628 12.8553 17.6548 12.921C17.6816 12.9866 17.7262 13.0435 17.7837 13.0851C17.8411 13.1268 17.9091 13.1515 17.9798 13.1565C18.0506 13.1615 18.1214 13.1466 18.1841 13.1135L21.7841 11.2205L25.3841 13.1135C25.4468 13.1466 25.5176 13.1615 25.5883 13.1565C25.6591 13.1515 25.727 13.1268 25.7845 13.0851C25.8419 13.0435 25.8866 12.9866 25.9134 12.921C25.9401 12.8553 25.948 12.7834 25.9361 12.7134L25.2481 8.70544L28.1621 5.86743C28.2131 5.81799 28.2492 5.75528 28.2664 5.68634C28.2835 5.6174 28.281 5.54505 28.2591 5.47748Z" fill="#74B500"/>
<path fill-rule="evenodd" clip-rule="evenodd" d="M42.9732 5.47723C42.9512 5.40975 42.9108 5.34972 42.8566 5.30396C42.8023 5.25819 42.7364 5.2285 42.6662 5.2182L38.6392 4.63422L36.8392 0.986206C36.8074 0.922844 36.7587 0.869568 36.6984 0.832336C36.638 0.795104 36.5686 0.775391 36.4977 0.775391C36.4268 0.775391 36.3573 0.795104 36.297 0.832336C36.2367 0.869568 36.188 0.922844 36.1562 0.986206L34.3562 4.63422L30.3302 5.2182C30.26 5.22857 30.1941 5.2583 30.14 5.30408C30.0858 5.34985 30.0455 5.40985 30.0235 5.47729C30.0016 5.54474 29.999 5.61697 30.0159 5.68585C30.0328 5.75473 30.0685 5.81754 30.1192 5.86719L33.0322 8.7052L32.3452 12.7132C32.3359 12.7678 32.3386 12.8238 32.3532 12.8773C32.3677 12.9307 32.3937 12.9803 32.4294 13.0227C32.4651 13.0651 32.5096 13.0992 32.5598 13.1226C32.6101 13.146 32.6648 13.1581 32.7202 13.1582C32.7819 13.1579 32.8425 13.1428 32.8972 13.1142L36.4972 11.2212L40.0972 13.1142C40.16 13.1469 40.2306 13.1615 40.3012 13.1563C40.3718 13.1511 40.4395 13.1264 40.4968 13.0848C40.5542 13.0433 40.5988 12.9867 40.6257 12.9212C40.6526 12.8557 40.6607 12.7841 40.6492 12.7142L39.9612 8.70618L42.8752 5.86823C42.9263 5.81867 42.9626 5.7558 42.98 5.68671C42.9973 5.61761 42.9949 5.54506 42.9732 5.47723Z" fill="#74B500"/>
<path fill-rule="evenodd" clip-rule="evenodd" d="M57.9898 5.47723C57.9678 5.40975 57.9274 5.34972 57.8732 5.30396C57.8189 5.25819 57.753 5.2285 57.6828 5.2182L53.6558 4.63422L51.8558 0.986206C51.824 0.922844 51.7753 0.869568 51.715 0.832336C51.6546 0.795104 51.5852 0.775391 51.5143 0.775391C51.4434 0.775391 51.3739 0.795104 51.3136 0.832336C51.2533 0.869568 51.2046 0.922844 51.1728 0.986206L49.3728 4.63422L45.3468 5.2182C45.2766 5.22857 45.2107 5.2583 45.1566 5.30408C45.1024 5.34985 45.0621 5.40985 45.0401 5.47729C45.0182 5.54474 45.0156 5.61697 45.0325 5.68585C45.0494 5.75473 45.0851 5.81754 45.1358 5.86719L48.0498 8.7052L47.3618 12.7132C47.3525 12.7678 47.3552 12.8238 47.3698 12.8773C47.3843 12.9307 47.4103 12.9803 47.446 13.0227C47.4817 13.0651 47.5262 13.0992 47.5764 13.1226C47.6267 13.146 47.6814 13.1581 47.7368 13.1582C47.7985 13.158 47.8592 13.1429 47.9138 13.1142L51.5138 11.2212L55.1138 13.1142C55.1766 13.1469 55.2472 13.1615 55.3178 13.1563C55.3884 13.1511 55.4561 13.1264 55.5134 13.0848C55.5708 13.0433 55.6154 12.9867 55.6423 12.9212C55.6692 12.8557 55.6773 12.7841 55.6658 12.7142L54.9778 8.70618L57.8918 5.86823C57.943 5.81867 57.9792 5.7558 57.9966 5.68671C58.0139 5.61761 58.0115 5.54506 57.9898 5.47723Z" fill="#74B500"/>
<path opacity="0.2" fill-rule="evenodd" clip-rule="evenodd" d="M72.7002 5.47748C72.6785 5.40982 72.6383 5.34958 72.584 5.30377C72.5297 5.25796 72.4636 5.2284 72.3932 5.21844L68.3672 4.63446L66.5672 0.98645C66.5356 0.923046 66.487 0.86968 66.4267 0.832397C66.3665 0.795115 66.2971 0.775391 66.2262 0.775391C66.1554 0.775391 66.0859 0.795115 66.0257 0.832397C65.9655 0.86968 65.9168 0.923046 65.8852 0.98645L64.0852 4.63446L60.0582 5.21844C59.9881 5.22881 59.9222 5.25854 59.868 5.30432C59.8138 5.3501 59.7735 5.41009 59.7516 5.47754C59.7296 5.54499 59.727 5.61721 59.7439 5.6861C59.7608 5.75498 59.7966 5.81779 59.8472 5.86743L62.7612 8.70544L62.0732 12.7134C62.0613 12.7834 62.0691 12.8553 62.0959 12.921C62.1227 12.9866 62.1674 13.0435 62.2248 13.0851C62.2823 13.1268 62.3502 13.1515 62.421 13.1565C62.4917 13.1615 62.5625 13.1466 62.6252 13.1135L66.2252 11.2205L69.8252 13.1135C69.8879 13.1466 69.9587 13.1615 70.0295 13.1565C70.1002 13.1515 70.1682 13.1268 70.2256 13.0851C70.2831 13.0435 70.3277 12.9866 70.3545 12.921C70.3813 12.8553 70.3892 12.7834 70.3772 12.7134L69.6892 8.70544L72.6032 5.86743C72.6542 5.81799 72.6903 5.75528 72.7075 5.68634C72.7246 5.6174 72.7221 5.54505 72.7002 5.47748Z" fill="#74B500"/>
</svg>
