<svg width="10" height="14" viewBox="0 0 10 14" fill="none" xmlns="http://www.w3.org/2000/svg">
<path fill-rule="evenodd" clip-rule="evenodd" d="M4.70031 0.988281C3.50592 0.989605 2.36082 1.46466 1.51626 2.30923C0.671694 3.15379 0.196636 4.29889 0.195312 5.49328C0.195313 8.57628 4.22731 13.1023 4.39531 13.2933C4.43336 13.335 4.47969 13.3683 4.53135 13.3911C4.583 13.4139 4.63885 13.4257 4.69531 13.4257C4.75178 13.4257 4.80762 13.4139 4.85928 13.3911C4.91093 13.3683 4.95727 13.335 4.99532 13.2933C5.16732 13.1023 9.19531 8.57628 9.19531 5.49328C9.194 4.30062 8.72031 3.15703 7.87791 2.31275C7.0355 1.46847 5.89297 0.992247 4.70031 0.988281ZM4.70031 7.76028C4.25194 7.76028 3.81364 7.62732 3.44083 7.37822C3.06803 7.12912 2.77746 6.77506 2.60588 6.36082C2.4343 5.94658 2.3894 5.49077 2.47688 5.05101C2.56435 4.61126 2.78026 4.20732 3.09731 3.89027C3.41435 3.57322 3.81829 3.35731 4.25804 3.26984C4.6978 3.18237 5.15362 3.22726 5.56786 3.39885C5.9821 3.57043 6.33615 3.861 6.58525 4.2338C6.83435 4.60661 6.96732 5.04491 6.96732 5.49328C6.96679 6.09437 6.72777 6.67068 6.30274 7.09571C5.87771 7.52074 5.30139 7.75975 4.70031 7.76028Z" fill="white"/>
</svg>
