<svg width="39" height="39" viewBox="0 0 39 39" fill="none" xmlns="http://www.w3.org/2000/svg">
<path d="M36.2053 32.855C36.1434 32.7618 36.0583 32.6864 35.9583 32.6362L34.6117 31.9633C34.5841 31.8623 34.5317 31.7698 34.4592 31.6943L23.1596 20.3947L24.8021 18.7541C26.2208 17.3342 27.8595 16.1529 29.6551 15.256L30.3287 14.917C30.5989 14.9492 30.8705 14.9662 31.1426 14.9678C33.0102 14.9698 34.8011 14.225 36.1166 12.8993L36.8809 12.135C38.7941 10.2204 39.268 7.2967 38.0576 4.87575C37.8986 4.558 37.5121 4.42933 37.1944 4.58832C37.133 4.61904 37.0769 4.65941 37.0282 4.70783L33.8435 7.89255C33.0907 8.64723 31.8686 8.64884 31.1139 7.89601C30.7509 7.53403 30.5469 7.04249 30.5468 6.52987C30.5458 6.01783 30.7494 5.52653 31.1124 5.16527L34.2971 1.98055C34.5481 1.72907 34.5477 1.32165 34.2961 1.07065C34.2476 1.02224 34.1917 0.981865 34.1304 0.951144C31.7113 -0.264197 28.7857 0.208605 26.8725 2.12402L26.1082 2.88836C24.7769 4.21275 24.0309 6.01477 24.0365 7.89255C24.0379 8.15432 24.0548 8.41578 24.0873 8.67554L23.7534 9.34851C22.8551 11.1442 21.6723 12.7828 20.2509 14.2009L18.6083 15.8434L17.6239 14.8597L19.4434 13.0383C19.6942 12.7871 19.6942 12.3804 19.4434 12.1292L18.562 11.2478C18.4436 11.1293 18.2836 11.0617 18.1161 11.0593L16.7502 11.0406L16.5263 10.2422C16.4961 10.136 16.4394 10.0393 16.3616 9.96101L7.72236 1.31851C5.96224 -0.440402 3.10958 -0.439357 1.35067 1.32076C-0.408246 3.08089 -0.4072 5.93354 1.35292 7.69246L9.95488 16.2944C10.0307 16.3701 10.1243 16.4256 10.227 16.4559L11.0821 16.71L11.1303 18.1255C11.136 18.2885 11.2034 18.4432 11.3188 18.5585L12.1681 19.4077C12.4193 19.6589 12.8266 19.6589 13.0778 19.4077L14.8935 17.5908L15.8759 18.5733L13.9168 20.5317C12.501 21.9543 10.8621 23.1359 9.06509 24.0298L8.39726 24.3695C8.13686 24.3366 7.87476 24.3194 7.61234 24.318C5.7344 24.3123 3.9323 25.058 2.60751 26.389L1.84317 27.1534C-0.0736889 29.0653 -0.547617 31.9914 0.667723 34.4107C0.827201 34.7282 1.21387 34.8563 1.53146 34.6968C1.59274 34.666 1.64863 34.6257 1.69713 34.5773L4.88185 31.3932C5.62937 30.6332 6.85139 30.6232 7.61138 31.3707C8.37137 32.1182 8.38142 33.3402 7.6339 34.1002C7.62658 34.1077 7.61918 34.1151 7.6117 34.1224L4.42698 37.3071C4.17622 37.5589 4.17703 37.9663 4.42875 38.217C4.47741 38.2655 4.53346 38.3058 4.5949 38.3366C7.01481 39.5457 9.93687 39.0721 11.8509 37.1605L12.6152 36.3961C14.1399 34.8814 14.8834 32.7498 14.6316 30.6154L14.9758 29.9321C15.8707 28.1369 17.051 26.4989 18.4706 25.0817L20.4284 23.1239L31.3987 34.0915C31.3909 34.2008 31.4115 34.3104 31.4585 34.4094L32.3637 36.2295C32.4139 36.3295 32.4894 36.4146 32.5825 36.4765L35.3123 38.2967C35.5674 38.4665 35.9069 38.4328 36.1236 38.2162L37.9437 36.3961C38.1607 36.1797 38.1949 35.8402 38.0255 35.5848L36.2053 32.855ZM27.0179 3.79809L27.7822 3.03376C29.0659 1.74789 30.9467 1.26069 32.6931 1.7618L30.2026 4.25296C28.9409 5.50369 28.9319 7.54054 30.1827 8.80229C31.4334 10.064 33.4703 10.073 34.732 8.82223C34.7387 8.81564 34.7454 8.80896 34.7519 8.80229L37.2418 6.31241C37.7398 8.05846 37.2536 9.93737 35.9712 11.2227L35.2068 11.987C33.9234 13.28 32.102 13.886 30.2998 13.6199H30.2856C29.9865 13.5772 29.6911 13.5114 29.4023 13.423L29.363 13.4108C29.082 13.3224 28.8083 13.2127 28.544 13.0827L28.5054 13.0634C28.2362 12.9286 27.9781 12.7728 27.7333 12.5976C27.4802 12.4146 27.242 12.2117 27.0211 11.9909C26.1313 11.1042 25.5574 9.94975 25.3876 8.70514C25.347 8.43749 25.3265 8.16711 25.3265 7.89641C25.32 6.35914 25.9291 4.88323 27.0179 3.79809ZM21.16 15.1113C22.5052 13.7705 23.6507 12.2434 24.5615 10.5767C24.5898 10.6462 24.6258 10.7118 24.6567 10.78C24.7063 10.8926 24.7564 11.0052 24.8124 11.1146C24.8594 11.2059 24.9102 11.2954 24.961 11.3848C25.0119 11.4742 25.0691 11.5727 25.1277 11.6647C25.1862 11.7567 25.2422 11.8429 25.3033 11.9304C25.3644 12.0179 25.432 12.1035 25.4963 12.1877C25.5607 12.272 25.625 12.3576 25.6938 12.4399C25.7627 12.5223 25.8527 12.6175 25.9345 12.705C25.9936 12.7694 26.0471 12.8337 26.1088 12.898C26.1577 12.9463 26.2105 12.9881 26.26 13.0344C26.3668 13.1348 26.4736 13.2345 26.5856 13.3278C26.6435 13.3761 26.7039 13.4205 26.7631 13.4674C26.8802 13.5588 26.9986 13.6469 27.1208 13.7306C27.1781 13.7698 27.2367 13.8084 27.2952 13.8457C27.429 13.9315 27.5658 14.0128 27.7057 14.0896C27.7552 14.1166 27.8041 14.1449 27.8543 14.1713C28.0383 14.2665 28.2255 14.3553 28.4179 14.4338L28.4359 14.4421C26.7675 15.3527 25.2381 16.4975 23.8943 17.8417L22.2498 19.4849L19.9581 17.1939L19.5181 16.7532L21.16 15.1113ZM12.6249 18.0463L12.41 17.8315L12.3547 16.2037C12.3454 15.9271 12.1601 15.6873 11.8947 15.6086L10.7514 15.2689L2.26587 6.78723C1.00839 5.53063 1.00767 3.49249 2.26427 2.23501C3.52086 0.977523 5.559 0.976799 6.81649 2.2334L15.3322 10.7517L15.6404 11.8513C15.7176 12.1256 15.966 12.3164 16.251 12.3203L17.8363 12.3422L18.0788 12.5847L12.6249 18.0463ZM11.7062 35.4877L10.9393 36.2539C9.65442 37.5368 7.77536 38.0229 6.02963 37.524L8.51951 35.0341C9.76042 33.7626 9.73565 31.726 8.46418 30.4851C7.21538 29.2664 5.22268 29.2653 3.97276 30.4828L1.4816 32.9727C0.979521 31.2263 1.46648 29.3452 2.75291 28.0618L3.51724 27.2975C5.78145 25.0432 9.44195 25.0432 11.7062 27.2975C12.5902 28.1863 13.1629 29.3374 13.3384 30.5787V30.5826C13.6054 32.3841 12.9993 34.2053 11.7062 35.4877ZM17.5609 24.1732C16.2162 25.5156 15.0713 27.0443 14.1613 28.7123C14.1523 28.6891 14.1401 28.6679 14.1304 28.6479C14.0596 28.4785 13.9824 28.3125 13.8988 28.15C13.8634 28.0818 13.8254 28.0155 13.7875 27.9479C13.7231 27.8302 13.6537 27.7137 13.581 27.5999C13.5327 27.5239 13.4838 27.45 13.433 27.376C13.3616 27.273 13.2863 27.1727 13.2091 27.0736C13.1531 27.0002 13.0978 26.9262 13.0379 26.8548C12.9466 26.7461 12.8488 26.6412 12.7504 26.537C12.704 26.4887 12.6635 26.4366 12.6159 26.389C12.5683 26.3414 12.5097 26.2944 12.4576 26.2456C12.3579 26.1516 12.2582 26.0577 12.1539 25.9702C12.0774 25.9058 11.9976 25.8467 11.9185 25.7855C11.8271 25.7154 11.7351 25.6459 11.6412 25.5803C11.5582 25.523 11.4745 25.4677 11.389 25.4137C11.2912 25.3493 11.1915 25.2934 11.0911 25.2367C11.0068 25.1891 10.9232 25.1409 10.837 25.0971C10.7179 25.036 10.5957 24.9813 10.4728 24.9273C10.4117 24.9002 10.3531 24.8681 10.2914 24.8423C11.9603 23.9349 13.4888 22.7902 14.8291 21.444L16.7869 19.4862L19.5187 22.218L17.5609 24.1732ZM32.1829 33.0596L15.8058 16.6824L16.7168 15.7714L33.094 32.1485L32.1829 33.0596ZM35.5883 36.9333L33.4401 35.5012L32.8141 34.2492L33.978 33.0853L35.23 33.7113L36.6621 35.8595L35.5883 36.9333Z" fill="white"/>
</svg>
