<?xml version="1.0" encoding="UTF-8" standalone="no"?>
<svg
   xmlns:dc="http://purl.org/dc/elements/1.1/"
   xmlns:cc="http://creativecommons.org/ns#"
   xmlns:rdf="http://www.w3.org/1999/02/22-rdf-syntax-ns#"
   xmlns:svg="http://www.w3.org/2000/svg"
   xmlns="http://www.w3.org/2000/svg"
   xmlns:sodipodi="http://sodipodi.sourceforge.net/DTD/sodipodi-0.dtd"
   xmlns:inkscape="http://www.inkscape.org/namespaces/inkscape"
   width="20"
   height="20"
   viewBox="0 0 20 20"
   fill="none"
   version="1.1"
   id="svg4"
   sodipodi:docname="icon-social-facebook.svg"
   inkscape:version="1.0.2 (e86c870879, 2021-01-15, custom)">
  <metadata
     id="metadata10">
    <rdf:RDF>
      <cc:Work
         rdf:about="">
        <dc:format>image/svg+xml</dc:format>
        <dc:type
           rdf:resource="http://purl.org/dc/dcmitype/StillImage" />
        <dc:title></dc:title>
      </cc:Work>
    </rdf:RDF>
  </metadata>
  <defs
     id="defs8" />
  <sodipodi:namedview
     pagecolor="#ffffff"
     bordercolor="#666666"
     borderopacity="1"
     objecttolerance="10"
     gridtolerance="10"
     guidetolerance="10"
     inkscape:pageopacity="0"
     inkscape:pageshadow="2"
     inkscape:window-width="1920"
     inkscape:window-height="1017"
     id="namedview6"
     showgrid="false"
     inkscape:zoom="41.111111"
     inkscape:cx="4"
     inkscape:cy="9"
     inkscape:window-x="-8"
     inkscape:window-y="-8"
     inkscape:window-maximized="1"
     inkscape:current-layer="svg4" />
  <path
     fill-rule="evenodd"
     clip-rule="evenodd"
     d="m 13.505984,1.8490264 h -1.64099 c -0.45423,-0.043167 -0.91239,0.01333 -1.34253,0.16556 -0.43014,0.15223 -0.8218704,0.39653 -1.1478304,0.71582 -0.32595,0.31929 -0.57829,0.70588 -0.73938,1.13278 -0.16108,0.4269 -0.22701,0.88381 -0.19323,1.33884 v 2.48001 H 6.1170064 l 0.00598,1.944 H 8.4409821 V 18.165036 H 10.770023 V 9.6260364 h 2.564999 l 0.54797,-1.944 h -3.09997 v -2.55301 c 5e-5,-0.13632 0.02923,-0.27107 0.08563,-0.39517 0.05641,-0.12411 0.13873,-0.23471 0.24139,-0.3244 0.10267,-0.08969 0.22333,-0.15636 0.35389,-0.19559 0.13055,-0.03923 0.26798,-0.05008 0.40307,-0.03183 h 1.62702 z"
     fill="#ffffff"
     id="path2" />
</svg>
