<svg width="12" height="25" viewBox="0 0 12 25" fill="none" xmlns="http://www.w3.org/2000/svg">
<path fill-rule="evenodd" clip-rule="evenodd" d="M11.036 0.599917H8.62201C7.95377 0.536199 7.2797 0.619193 6.64685 0.84302C6.014 1.06685 5.43759 1.42614 4.95801 1.89582C4.47842 2.3655 4.10722 2.93421 3.87024 3.56226C3.63326 4.1903 3.53624 4.8625 3.586 5.53192V9.17993H0.166992L0.176025 12.0399H3.58502V24.601H7.01099V12.0389H10.784L11.59 9.17896H7.03003V5.42291C7.03008 5.22243 7.07296 5.02427 7.15588 4.84174C7.23881 4.65921 7.35984 4.49655 7.5108 4.36463C7.66177 4.2327 7.83919 4.13457 8.03119 4.07685C8.22319 4.01912 8.42534 4.00316 8.62402 4.02997H11.018L11.036 0.599917Z" fill="#5D82D1"/>
</svg>
