<?xml version="1.0" encoding="UTF-8" standalone="no"?>
<svg
   xmlns:dc="http://purl.org/dc/elements/1.1/"
   xmlns:cc="http://creativecommons.org/ns#"
   xmlns:rdf="http://www.w3.org/1999/02/22-rdf-syntax-ns#"
   xmlns:svg="http://www.w3.org/2000/svg"
   xmlns="http://www.w3.org/2000/svg"
   xmlns:sodipodi="http://sodipodi.sourceforge.net/DTD/sodipodi-0.dtd"
   xmlns:inkscape="http://www.inkscape.org/namespaces/inkscape"
   width="20"
   height="20"
   viewBox="0 0 20 20"
   fill="none"
   version="1.1"
   id="svg4"
   sodipodi:docname="icon-social-email.svg"
   inkscape:version="1.0.2 (e86c870879, 2021-01-15, custom)">
  <metadata
     id="metadata10">
    <rdf:RDF>
      <cc:Work
         rdf:about="">
        <dc:format>image/svg+xml</dc:format>
        <dc:type
           rdf:resource="http://purl.org/dc/dcmitype/StillImage" />
        <dc:title></dc:title>
      </cc:Work>
    </rdf:RDF>
  </metadata>
  <defs
     id="defs8" />
  <sodipodi:namedview
     pagecolor="#ffffff"
     bordercolor="#666666"
     borderopacity="1"
     objecttolerance="10"
     gridtolerance="10"
     guidetolerance="10"
     inkscape:pageopacity="0"
     inkscape:pageshadow="2"
     inkscape:window-width="1920"
     inkscape:window-height="1017"
     id="namedview6"
     showgrid="false"
     inkscape:zoom="77.307692"
     inkscape:cx="6.5"
     inkscape:cy="4.5"
     inkscape:window-x="-8"
     inkscape:window-y="-8"
     inkscape:window-maximized="1"
     inkscape:current-layer="svg4" />
  <path
     fill-rule="evenodd"
     clip-rule="evenodd"
     d="m 11.913997,10.059494 3.96301,2.5 V 7.445514 Z M 4.1229935,7.450484 v 5.11401 l 3.962003,-2.5 z M 15.142007,5.959486 H 4.8569965 c -0.17371,0.00163 -0.341065,0.0655 -0.471705,0.179993 -0.130639,0.114493 -0.215897,0.272042 -0.240295,0.444031 l 5.855,3.858974 5.8550105,-3.858974 c -0.0244,-0.172158 -0.1098,-0.329852 -0.2407,-0.444367 -0.1308,-0.114514 -0.2984,-0.178267 -0.4723,-0.179657 z m -3.90001,4.545018 -1.039,0.68399 c -0.05949,0.03898 -0.12888,0.06015 -0.2,0.061 -0.071161,-5.7e-4 -0.1406305,-0.02176 -0.2000005,-0.061 l -1.04,-0.68601 -4.612003,2.918 c 0.025048,0.17118 0.110486,0.32777 0.240875,0.44147 0.130388,0.1137 0.297138,0.17704 0.470128,0.17856 H 15.147007 c 0.173,-0.0015 0.3397,-0.06486 0.4701,-0.17856 0.1304,-0.1137 0.2158,-0.27029 0.2409,-0.44147 z"
     fill="#ffffff"
     id="path2" />
</svg>
