<svg width="40" height="40" viewBox="0 0 40 40" fill="none" xmlns="http://www.w3.org/2000/svg">
<path d="M0.976562 5.15625H4.17969C4.7182 5.15625 5.15625 4.7182 5.15625 4.17969V3.16406H8.4957C8.8193 3.16406 9.08164 2.90172 9.08164 2.57812C9.08164 2.25453 8.8193 1.99219 8.4957 1.99219H5.15625V0.976562C5.15625 0.438047 4.7182 0 4.17969 0H0.976562C0.438047 0 0 0.438047 0 0.976562V4.17969C0 4.7182 0.438047 5.15625 0.976562 5.15625ZM1.17187 1.17188H3.98437V3.98438H1.17187V1.17188Z" fill="white"/>
<path d="M39.0234 0H35.8203C35.2818 0 34.8438 0.438047 34.8438 0.976562V1.99219H22.5102C22.2441 0.852109 21.22 0 20 0C18.78 0 17.7559 0.852109 17.4898 1.99219H11.2217C10.8981 1.99219 10.6358 2.25453 10.6358 2.57812C10.6358 2.90172 10.8981 3.16406 11.2217 3.16406H13.6122C11.2476 4.06375 9.07406 5.45906 7.26656 7.26656C4.51383 10.0193 2.71687 13.6208 2.17188 17.4541C0.942656 17.6496 0 18.7166 0 20C0 21.4216 1.15656 22.5781 2.57812 22.5781C3.99969 22.5781 5.15625 21.4216 5.15625 20C5.15625 18.845 4.39273 17.8649 3.34398 17.538C4.41547 10.2645 10.2645 4.41547 17.538 3.34398C17.8649 4.39273 18.845 5.15625 20 5.15625C21.1552 5.15625 22.1354 4.3925 22.4622 3.34344C25.8324 3.83547 28.9291 5.31859 31.4469 7.65414C31.5562 7.77641 31.9836 7.91695 32.275 7.62305C32.495 7.38578 32.4812 7.01508 32.2439 6.795C30.5247 5.20023 28.5527 3.97742 26.4134 3.16414H34.8438V4.17977C34.8438 4.71828 35.2818 5.15633 35.8203 5.15633H39.0234C39.562 5.15633 40 4.71828 40 4.17977V0.976641C40 0.438047 39.562 0 39.0234 0V0ZM3.98438 20C3.98438 20.7754 3.35352 21.4062 2.57812 21.4062C1.80273 21.4062 1.17188 20.7754 1.17188 20C1.17188 19.2246 1.80273 18.5938 2.57812 18.5938C3.35352 18.5938 3.98438 19.2246 3.98438 20ZM20 3.98438C19.2246 3.98438 18.5938 3.35352 18.5938 2.57812C18.5938 1.80273 19.2246 1.17188 20 1.17188C20.7754 1.17188 21.4062 1.80273 21.4062 2.57812C21.4062 3.35352 20.7754 3.98438 20 3.98438ZM38.8281 3.98438H36.0156V1.17188H38.8281V3.98438Z" fill="white"/>
<path d="M37.8285 17.4543C37.3851 14.3253 36.1226 11.3677 34.1597 8.87305C33.9595 8.61875 33.5912 8.57477 33.3369 8.77492C33.0825 8.97508 33.0387 9.34344 33.2387 9.59773C35.0568 11.9083 36.2323 14.6433 36.6569 17.5379C35.6076 17.8645 34.8437 18.8448 34.8437 20.0001C34.8437 21.4216 36.0003 22.5782 37.4218 22.5782C38.8434 22.5782 40 21.4216 40 20.0001C40 18.7169 39.0575 17.6499 37.8285 17.4543ZM37.4218 21.4063C36.6465 21.4063 36.0156 20.7755 36.0156 20.0001C36.0156 19.2247 36.6465 18.5938 37.4218 18.5938C38.1972 18.5938 38.8281 19.2247 38.8281 20.0001C38.8281 20.7755 38.1972 21.4063 37.4218 21.4063Z" fill="white"/>
<path d="M27.8882 22.1442C28.2815 21.7152 28.3588 21.0824 28.0804 20.5695L21.6423 8.71133C21.7166 8.51688 21.7577 8.30617 21.7577 8.08594C21.7577 7.11664 20.9691 6.32812 19.9999 6.32812C19.0306 6.32812 18.2421 7.11664 18.2421 8.08594C18.2421 8.30617 18.2832 8.5168 18.3574 8.71125L11.9193 20.5693C11.6408 21.0823 11.7182 21.7152 12.1119 22.1444C12.5779 22.6522 13.4707 23.7176 14.2141 25.1479C14.3524 25.3564 14.6389 25.5721 15.0042 25.3976C15.2914 25.2484 15.4032 24.8946 15.2539 24.6074C14.4482 23.0573 13.4805 21.9024 12.9753 21.352C12.92 21.2916 12.9094 21.2018 12.9492 21.1284L19.1851 9.64281C19.2585 9.68141 19.3349 9.71492 19.4139 9.74297V18.5724C18.0885 18.8443 17.0885 20.0198 17.0885 21.4245C17.0885 23.0299 18.3945 24.3359 19.9999 24.3359C21.6053 24.3359 22.9113 23.0299 22.9113 21.4245C22.9113 20.0198 21.9114 18.8443 20.5858 18.5724V9.74305C20.6649 9.715 20.7413 9.68141 20.8146 9.64289L27.0506 21.1286C27.0904 21.202 27.08 21.2918 27.0246 21.3523C25.9275 22.5486 23.3759 25.7734 23.3759 29.8705V31.1949H22.1757C21.8521 31.1949 21.5898 31.4572 21.5898 31.7808C21.5898 32.1044 21.8521 32.3667 22.1757 32.3667H26.3279C26.5648 32.3667 26.7576 32.5595 26.7576 32.7964V33.4995C26.7576 33.7365 26.5648 33.9292 26.3279 33.9292H13.6717C13.4347 33.9292 13.242 33.7365 13.242 33.4995V32.7964C13.242 32.5595 13.4347 32.3667 13.6717 32.3667H19.4678C19.7914 32.3667 20.0538 32.1044 20.0538 31.7808C20.0538 31.4572 19.7914 31.1949 19.4678 31.1949H16.6264V29.8704C16.6264 29.0138 16.5124 28.1381 16.2873 27.2677C16.2063 26.9543 15.8866 26.7661 15.5733 26.847C15.26 26.9281 15.0717 27.2477 15.1527 27.561C15.353 28.3357 15.4546 29.1127 15.4546 29.8705V31.1949H13.6717C12.7885 31.1949 12.0701 31.9133 12.0701 32.7964V33.4995C12.0701 34.205 12.5292 34.8042 13.1639 35.0172V38.6329C13.1639 39.3867 13.7772 40.0001 14.531 40.0001H25.4685C26.2224 40.0001 26.8357 39.3867 26.8357 38.6329V35.0171C27.4704 34.8041 27.9295 34.2049 27.9295 33.4995V32.7963C27.9295 31.9132 27.211 31.1948 26.3279 31.1948H24.5477V29.8704C24.5477 26.1849 26.8838 23.2395 27.8882 22.1442ZM19.9998 7.50008C20.3229 7.50008 20.5857 7.76289 20.5857 8.08602C20.5857 8.40914 20.3229 8.67195 19.9998 8.67195C19.6767 8.67195 19.4139 8.40914 19.4139 8.08602C19.4139 7.76289 19.6767 7.50008 19.9998 7.50008ZM21.7393 21.4246C21.7393 22.3838 20.959 23.1641 19.9998 23.1641C19.0406 23.1641 18.2603 22.3838 18.2603 21.4246C18.2603 20.4655 19.0407 19.6851 19.9998 19.6851C20.9589 19.6851 21.7393 20.4655 21.7393 21.4246ZM25.4685 38.8282H14.531C14.4234 38.8282 14.3357 38.7406 14.3357 38.6329V37.5506H19.1537C19.4773 37.5506 19.7396 37.2882 19.7396 36.9646C19.7396 36.641 19.4773 36.3787 19.1537 36.3787H14.3357V35.101H25.6639V36.3787H24.0407C23.7171 36.3787 23.4548 36.641 23.4548 36.9646C23.4548 37.2882 23.7171 37.5506 24.0407 37.5506H25.6639V38.6329C25.6639 38.7406 25.5763 38.8282 25.4685 38.8282Z" fill="white"/>
</svg>
