<?xml version="1.0" encoding="UTF-8" standalone="no"?>
<svg
   xmlns:dc="http://purl.org/dc/elements/1.1/"
   xmlns:cc="http://creativecommons.org/ns#"
   xmlns:rdf="http://www.w3.org/1999/02/22-rdf-syntax-ns#"
   xmlns:svg="http://www.w3.org/2000/svg"
   xmlns="http://www.w3.org/2000/svg"
   xmlns:sodipodi="http://sodipodi.sourceforge.net/DTD/sodipodi-0.dtd"
   xmlns:inkscape="http://www.inkscape.org/namespaces/inkscape"
   width="20"
   height="20"
   viewBox="0 0 20 20"
   fill="none"
   version="1.1"
   id="svg4"
   sodipodi:docname="icon-social-instagram.svg"
   inkscape:version="1.0.2 (e86c870879, 2021-01-15, custom)">
  <metadata
     id="metadata10">
    <rdf:RDF>
      <cc:Work
         rdf:about="">
        <dc:format>image/svg+xml</dc:format>
        <dc:type
           rdf:resource="http://purl.org/dc/dcmitype/StillImage" />
        <dc:title></dc:title>
      </cc:Work>
    </rdf:RDF>
  </metadata>
  <defs
     id="defs8" />
  <sodipodi:namedview
     pagecolor="#ffffff"
     bordercolor="#666666"
     borderopacity="1"
     objecttolerance="10"
     gridtolerance="10"
     guidetolerance="10"
     inkscape:pageopacity="0"
     inkscape:pageshadow="2"
     inkscape:window-width="1920"
     inkscape:window-height="1017"
     id="namedview6"
     showgrid="false"
     inkscape:zoom="46.25"
     inkscape:cx="8"
     inkscape:cy="8"
     inkscape:window-x="-8"
     inkscape:window-y="-8"
     inkscape:window-maximized="1"
     inkscape:current-layer="svg4" />
  <path
     fill-rule="evenodd"
     clip-rule="evenodd"
     d="M 15.575,17.5085 H 4.424 C 3.91368,17.5072 3.424629,17.304 3.063589,16.9433 2.702549,16.5827 2.4988473,16.0938 2.497,15.5835 V 4.41151 C 2.5001627,3.90206 2.7044,3.414472 3.065298,3.054885 3.426197,2.695298 3.91454,2.4928087 4.424,2.4915 h 11.151 c 0.5105,0.00105 0.9998,0.204095 1.3611,0.564789 0.3612,0.360694 0.565,0.849711 0.5669,1.360201 V 15.5885 c -0.0032,0.5096 -0.2076,0.9974 -0.5687,1.357 -0.3611,0.3596 -0.8497,0.562 -1.3593,0.563 z M 15.361,5.20149 C 15.3605,5.05048 15.3003,4.90581 15.1935,4.79903 15.0867,4.69224 14.942,4.63204 14.791,4.63151 h -1 c -0.151,5.3e-4 -0.2957,0.06073 -0.4025,0.16752 -0.1067,0.10678 -0.167,0.25145 -0.1675,0.40246 v 1 c 5e-4,0.15092 0.0608,0.29551 0.1676,0.40213 0.1068,0.10662 0.2515,0.16661 0.4024,0.16687 h 1 C 14.9419,6.77023 15.0866,6.71024 15.1934,6.60362 15.3002,6.497 15.3605,6.35241 15.361,6.20149 Z m 0.7,3.71701 h -1.534 c 0.1638,0.68388 0.1705,1.396 0.0195,2.08283 -0.151,0.68682 -0.4557,1.33048 -0.8912,1.88267 -0.4355,0.5521 -0.9904,0.9984 -1.6232,1.3052 -0.63277,0.3068 -1.32687,0.4662 -2.0301,0.4662 -0.70322,0 -1.39732,-0.1594 -2.03009,-0.4662 C 7.33915,13.8824 6.78419,13.4361 6.34868,12.884 5.91318,12.33181 5.60849,11.68815 5.45751,11.00133 5.30654,10.3145 5.31317,9.60238 5.47698,8.9185 H 3.93102 v 6.56 c 0.00132,0.1583 0.06511,0.3096 0.17749,0.4211 0.11238,0.1114 0.26422,0.1739 0.42249,0.1739 h 10.938 c 0.1583,0 0.3102,-0.0625 0.4225,-0.1739 0.1124,-0.1115 0.1762,-0.2628 0.1775,-0.4211 v -6.56 z M 9.99798,6.77849 c 0.63586,0 1.25749,0.18857 1.78619,0.54184 0.5287,0.35327 0.94073,0.85537 1.18413,1.44284 0.2433,0.58746 0.307,1.23389 0.1829,1.85754 -0.124,0.62365 -0.4302,1.19652 -0.87985,1.64615 C 11.82173,12.7165 11.24888,13.0227 10.62523,13.1467 10.00159,13.2708 9.35516,13.2071 8.76769,12.9638 8.18023,12.7204 7.67809,12.30835 7.32482,11.77965 6.97155,11.25094 6.78301,10.62938 6.78301,9.99351 6.78288,9.57136 6.86587,9.15331 7.02733,8.76326 7.18879,8.3732 7.42553,8.01875 7.72399,7.7202 8.02245,7.42165 8.37683,7.18482 8.76684,7.02324 9.15684,6.86166 9.57485,6.77849 9.997,6.77849 Z"
     fill="#ffffff"
     id="path2" />
</svg>
