<svg width="12" height="11" viewBox="0 0 12 11" fill="none" xmlns="http://www.w3.org/2000/svg">
<path fill-rule="evenodd" clip-rule="evenodd" d="M10.4379 7.27884C9.78626 7.28037 9.13865 7.17705 8.51987 6.97285C8.37444 6.92636 8.21942 6.91851 8.07004 6.95007C7.92066 6.98163 7.78208 7.05151 7.66788 7.15284L6.45889 8.06585C5.15968 7.41812 4.10662 6.36506 3.45889 5.06584L4.34488 3.88884C4.45887 3.7745 4.5388 3.63069 4.57571 3.47351C4.61263 3.31633 4.60504 3.15198 4.55386 2.99884C4.34988 2.37929 4.24627 1.73111 4.24689 1.07884C4.24689 0.850043 4.15614 0.630585 3.99454 0.468611C3.83294 0.306637 3.61369 0.215373 3.38489 0.214844H1.40988C1.18091 0.215109 0.961406 0.306255 0.799591 0.468258C0.637776 0.630261 0.546875 0.84987 0.546875 1.07884C0.549523 3.7012 1.59249 6.21537 3.44687 8.06956C5.30125 9.92375 7.81551 10.9665 10.4379 10.9688C10.6666 10.9686 10.8858 10.8775 11.0475 10.7157C11.2091 10.5539 11.2999 10.3346 11.2999 10.1058V8.14185C11.2999 7.91314 11.2091 7.69378 11.0475 7.53196C10.8858 7.37015 10.6666 7.27911 10.4379 7.27884Z" fill="white"/>
</svg>
