<?xml version="1.0" encoding="UTF-8" standalone="no"?>
<svg
   xmlns:dc="http://purl.org/dc/elements/1.1/"
   xmlns:cc="http://creativecommons.org/ns#"
   xmlns:rdf="http://www.w3.org/1999/02/22-rdf-syntax-ns#"
   xmlns:svg="http://www.w3.org/2000/svg"
   xmlns="http://www.w3.org/2000/svg"
   xmlns:sodipodi="http://sodipodi.sourceforge.net/DTD/sodipodi-0.dtd"
   xmlns:inkscape="http://www.inkscape.org/namespaces/inkscape"
   width="73"
   height="14"
   viewBox="0 0 73 14"
   fill="none"
   version="1.1"
   id="svg12"
   sodipodi:docname="icon-stars-2.svg"
   inkscape:version="1.0.2 (e86c870879, 2021-01-15, custom)">
  <metadata
     id="metadata18">
    <rdf:RDF>
      <cc:Work
         rdf:about="">
        <dc:format>image/svg+xml</dc:format>
        <dc:type
           rdf:resource="http://purl.org/dc/dcmitype/StillImage" />
      </cc:Work>
    </rdf:RDF>
  </metadata>
  <defs
     id="defs16" />
  <sodipodi:namedview
     pagecolor="#ffffff"
     bordercolor="#666666"
     borderopacity="1"
     objecttolerance="10"
     gridtolerance="10"
     guidetolerance="10"
     inkscape:pageopacity="0"
     inkscape:pageshadow="2"
     inkscape:window-width="1920"
     inkscape:window-height="1017"
     id="namedview14"
     showgrid="false"
     inkscape:zoom="9.7348262"
     inkscape:cx="43.284653"
     inkscape:cy="11.885247"
     inkscape:window-x="-8"
     inkscape:window-y="-8"
     inkscape:window-maximized="1"
     inkscape:current-layer="svg12" />
  <path
     fill-rule="evenodd"
     clip-rule="evenodd"
     d="M13.939 5.47748C13.917 5.41 13.8766 5.34996 13.8224 5.3042C13.7681 5.25844 13.7022 5.22874 13.632 5.21844L9.60498 4.63446L7.80498 0.98645C7.77338 0.923046 7.72474 0.86968 7.66451 0.832397C7.60427 0.795115 7.53483 0.775391 7.46399 0.775391C7.39315 0.775391 7.32371 0.795115 7.26347 0.832397C7.20324 0.86968 7.15459 0.923046 7.12299 0.98645L5.32298 4.63446L1.29698 5.21844C1.22682 5.22881 1.16094 5.25854 1.10677 5.30432C1.05259 5.3501 1.01227 5.41009 0.990343 5.47754C0.968414 5.54499 0.965756 5.61721 0.982652 5.6861C0.999549 5.75498 1.03533 5.81779 1.08598 5.86743L3.99999 8.70544L3.31299 12.7134C3.30368 12.7681 3.30639 12.824 3.32094 12.8775C3.33549 12.931 3.36153 12.9806 3.39723 13.0229C3.43293 13.0653 3.47743 13.0994 3.52765 13.1228C3.57787 13.1462 3.63259 13.1584 3.68799 13.1584C3.74966 13.1581 3.81035 13.143 3.86499 13.1144L7.46498 11.2214L11.065 13.1144C11.1278 13.1474 11.1985 13.1623 11.2693 13.1572C11.3401 13.1522 11.408 13.1275 11.4655 13.0859C11.523 13.0443 11.5677 12.9875 11.5946 12.9219C11.6216 12.8563 11.6297 12.7844 11.618 12.7145L10.93 8.70642L13.843 5.86847C13.894 5.81883 13.9301 5.75584 13.947 5.68671C13.964 5.61758 13.9612 5.5451 13.939 5.47748Z"
     fill="#74B500"
     id="path2" />
  <path
     fill-rule="evenodd"
     clip-rule="evenodd"
     d="M28.2591 5.47748C28.2374 5.40982 28.1971 5.34958 28.1428 5.30377C28.0885 5.25796 28.0224 5.2284 27.9521 5.21844L23.9261 4.63446L22.1261 0.98645C22.0945 0.923046 22.0458 0.86968 21.9856 0.832397C21.9254 0.795115 21.8559 0.775391 21.7851 0.775391C21.7142 0.775391 21.6448 0.795115 21.5846 0.832397C21.5243 0.86968 21.4757 0.923046 21.4441 0.98645L19.6441 4.63446L15.6171 5.21844C15.5468 5.22862 15.4808 5.25828 15.4265 5.30408C15.3722 5.34987 15.3318 5.40997 15.31 5.47754C15.2881 5.54511 15.2856 5.61748 15.3028 5.6864C15.3199 5.75532 15.3561 5.81801 15.4071 5.86743L18.3201 8.70544L17.6321 12.7134C17.6201 12.7834 17.628 12.8553 17.6548 12.921C17.6816 12.9866 17.7262 13.0435 17.7837 13.0851C17.8411 13.1268 17.9091 13.1515 17.9798 13.1565C18.0506 13.1615 18.1214 13.1466 18.1841 13.1135L21.7841 11.2205L25.3841 13.1135C25.4468 13.1466 25.5176 13.1615 25.5883 13.1565C25.6591 13.1515 25.727 13.1268 25.7845 13.0851C25.8419 13.0435 25.8866 12.9866 25.9134 12.921C25.9401 12.8553 25.948 12.7834 25.9361 12.7134L25.2481 8.70544L28.1621 5.86743C28.2131 5.81799 28.2492 5.75528 28.2664 5.68634C28.2835 5.6174 28.281 5.54505 28.2591 5.47748Z"
     fill="#74B500"
     id="path4" />
  <path
     opacity="0.2"
     fill-rule="evenodd"
     clip-rule="evenodd"
     d="m 72.700203,5.47748 c -0.0217,-0.06766 -0.0619,-0.1279 -0.1162,-0.17371 -0.0543,-0.04581 -0.1204,-0.07537 -0.1908,-0.08533 l -4.026,-0.58398 -1.8,-3.64801 c -0.0316,-0.063404 -0.0802,-0.11677 -0.1405,-0.154053 -0.0602,-0.037282 -0.1296,-0.057006 -0.2005,-0.057006 -0.0708,0 -0.1403,0.019724 -0.2005,0.057006 -0.0602,0.037283 -0.1089,0.090649 -0.1405,0.154053 l -1.8,3.64801 -4.027,0.58398 c -0.0701,0.01037 -0.136,0.0401 -0.1902,0.08588 -0.0542,0.04578 -0.0945,0.10577 -0.1164,0.17322 -0.022,0.06745 -0.0246,0.13967 -0.0077,0.20856 0.0169,0.06888 0.0527,0.13169 0.1033,0.18133 l 2.914,2.83801 -0.688,4.00796 c -0.0119,0.07 -0.0041,0.1419 0.0227,0.2076 0.0268,0.0656 0.0715,0.1225 0.1289,0.1641 0.0575,0.0417 0.1254,0.0664 0.1962,0.0714 0.0707,0.005 0.1415,-0.0099 0.2042,-0.043 l 3.6,-1.893 3.6,1.893 c 0.0627,0.0331 0.1335,0.048 0.2043,0.043 0.0707,-0.005 0.1387,-0.0297 0.1961,-0.0714 0.0575,-0.0416 0.1021,-0.0985 0.1289,-0.1641 0.0268,-0.0657 0.0347,-0.1376 0.0227,-0.2076 l -0.688,-4.00796 2.914,-2.83801 c 0.051,-0.04944 0.0871,-0.11215 0.1043,-0.18109 0.0171,-0.06894 0.0146,-0.14129 -0.0073,-0.20886 z"
     fill="#74b500"
     id="path10" />
  <path
     opacity="0.2"
     fill-rule="evenodd"
     clip-rule="evenodd"
     d="m 42.972557,5.47748 c -0.0217,-0.06766 -0.0619,-0.1279 -0.1162,-0.17371 -0.0543,-0.04581 -0.1204,-0.07537 -0.1908,-0.08533 l -4.026,-0.5839804 -1.8,-3.64801 c -0.0316,-0.0634 -0.0802,-0.11677 -0.1405,-0.154053 -0.0602,-0.03728 -0.1296,-0.05701 -0.2005,-0.05701 -0.0708,0 -0.1403,0.01972 -0.2005,0.05701 -0.0602,0.03728 -0.1089,0.09065 -0.1405,0.154053 l -1.8,3.64801 -4.027,0.5839804 c -0.0701,0.01037 -0.136,0.0401 -0.1902,0.08588 -0.0542,0.04578 -0.0945,0.10577 -0.1164,0.17322 -0.022,0.06745 -0.0246,0.13967 -0.0077,0.20856 0.0169,0.06888 0.0527,0.13169 0.1033,0.18133 l 2.914,2.83801 -0.688,4.00796 c -0.0119,0.07 -0.0041,0.1419 0.0227,0.2076 0.0268,0.0656 0.0715,0.1225 0.1289,0.1641 0.0575,0.0417 0.1254,0.0664 0.1962,0.0714 0.0707,0.005 0.1415,-0.0099 0.2042,-0.043 l 3.6,-1.893 3.6,1.893 c 0.0627,0.0331 0.1335,0.048 0.2043,0.043 0.0707,-0.005 0.1387,-0.0297 0.1961,-0.0714 0.0575,-0.0416 0.1021,-0.0985 0.1289,-0.1641 0.0268,-0.0657 0.0347,-0.1376 0.0227,-0.2076 l -0.688,-4.00796 2.914,-2.83801 c 0.051,-0.04944 0.0871,-0.11215 0.1043,-0.18109 0.0171,-0.06894 0.0146,-0.14129 -0.0073,-0.20886 z"
     fill="#74b500"
     id="path843" />
  <path
     opacity="0.2"
     fill-rule="evenodd"
     clip-rule="evenodd"
     d="m 57.83638,5.47748 c -0.0217,-0.06766 -0.0619,-0.1279 -0.1162,-0.17371 -0.0543,-0.04581 -0.1204,-0.07537 -0.1908,-0.08533 l -4.026,-0.5839804 -1.8,-3.64800961 c -0.0316,-0.0634 -0.0802,-0.11677 -0.1405,-0.154053 -0.0602,-0.03728 -0.1296,-0.05701 -0.2005,-0.05701 -0.0708,0 -0.1403,0.01972 -0.2005,0.05701 -0.0602,0.03728 -0.1089,0.09065 -0.1405,0.154053 l -1.8,3.64800961 -4.027,0.5839804 c -0.0701,0.01037 -0.136,0.0401 -0.1902,0.08588 -0.0542,0.04578 -0.0945,0.10577 -0.1164,0.17322 -0.022,0.06745 -0.0246,0.13967 -0.0077,0.20856 0.0169,0.06888 0.0527,0.13169 0.1033,0.18133 l 2.914,2.83801 -0.688,4.00796 c -0.0119,0.07 -0.0041,0.1419 0.0227,0.2076 0.0268,0.0656 0.0715,0.1225 0.1289,0.1641 0.0575,0.0417 0.1254,0.0664 0.1962,0.0714 0.0707,0.005 0.1415,-0.0099 0.2042,-0.043 l 3.6,-1.893 3.6,1.893 c 0.0627,0.0331 0.1335,0.048 0.2043,0.043 0.0707,-0.005 0.1387,-0.0297 0.1961,-0.0714 0.0575,-0.0416 0.1021,-0.0985 0.1289,-0.1641 0.0268,-0.0657 0.0347,-0.1376 0.0227,-0.2076 l -0.688,-4.00796 2.914,-2.83801 c 0.051,-0.04944 0.0871,-0.11215 0.1043,-0.18109 0.0171,-0.06894 0.0146,-0.14129 -0.0073,-0.20886 z"
     fill="#74b500"
     id="path845" />
</svg>
