<svg xmlns:dc="http://purl.org/dc/elements/1.1/" xmlns:cc="http://creativecommons.org/ns#" xmlns:rdf="http://www.w3.org/1999/02/22-rdf-syntax-ns#" xmlns:svg="http://www.w3.org/2000/svg" xmlns="http://www.w3.org/2000/svg" width="480" height="188" viewBox="0 0 127 49.741668" id="svg1061"><defs id="defs1055"><clipPath id="clipPath849"><path id="path847" d="M 0,288 H 792 V 0 H 0 Z"></path></clipPath><clipPath id="clipPath2652"><path id="path2650" d="M 0,169.718 H 396.007 V 0 H 0 Z"></path></clipPath></defs><metadata></metadata><g id="layer1"><path d="m 32.902101,43.859084 -2.514244,-1.16099 c -0.02081,-0.0095 -0.04269,-0.01411 -0.06491,-0.01411 -0.02187,0 -0.04445,0.0046 -0.06491,0.01411 l -1.235779,0.574321 -0.04374,0.02011 v -0.04727 -0.327024 c 0,-0.08326 -0.06809,-0.150283 -0.1524,-0.150283 h -1.004004 c -0.08431,0 -0.1524,0.06703 -0.1524,0.150283 v 4.05694 c 0,0.0829 0.06809,0.14993 0.1524,0.14993 h 1.004004 c 0.08431,0 0.1524,-0.06703 0.1524,-0.14993 v -2.237667 -0.0187 l 0.01764,-0.0085 1.315507,-0.611011 0.0127,-0.006 0.01305,0.006 1.325738,0.612422 0.01729,0.0078 v 0.0194 2.236256 c 0,0.0829 0.06809,0.14993 0.152753,0.14993 H 32.8372 c 0.08431,0 0.1524,-0.06703 0.1524,-0.14993 v -2.980264 c 0,-0.05821 -0.03422,-0.111125 -0.08749,-0.135819" style="fill:#feffff;fill-opacity:1;fill-rule:nonzero;stroke:none;stroke-width:0.352777" id="path2656"></path><path d="m 39.151517,43.341877 h -1.032579 c -0.08396,0 -0.152047,0.06703 -0.152047,0.150283 v 3.47521 c 0,0.0829 0.06809,0.150283 0.152047,0.150283 h 1.032579 c 0.08431,0 0.152753,-0.06738 0.152753,-0.150283 v -3.47521 c 0,-0.08326 -0.06844,-0.150283 -0.152753,-0.150283" style="fill:#feffff;fill-opacity:1;fill-rule:nonzero;stroke:none;stroke-width:0.352777" id="path2660"></path><path d="m 38.631311,41.309703 c -0.439208,0 -0.770819,0.326672 -0.770819,0.75953 0,0.43321 0.331611,0.759529 0.770819,0.759529 0.439561,0 0.771171,-0.326319 0.771171,-0.759529 0,-0.432858 -0.33161,-0.75953 -0.771171,-0.75953" style="fill:#feffff;fill-opacity:1;fill-rule:nonzero;stroke:none;stroke-width:0.352777" id="path2664"></path><path d="m 46.899531,43.244793 c -0.4318,0 -0.746124,0.129117 -0.962377,0.395111 l -0.05398,0.06703 v -0.08572 -1.867603 c 0,-0.08255 -0.06809,-0.14993 -0.152399,-0.14993 H 44.6982 c -0.08431,0 -0.1524,0.06738 -0.1524,0.14993 v 5.221458 c 0,0.0829 0.06809,0.149931 0.1524,0.149931 h 1.03258 c 0.08431,0 0.152399,-0.06703 0.152399,-0.149931 v -1.875364 c 0,-0.56515 0.36195,-0.625828 0.517525,-0.625828 0.453671,0 0.521405,0.38735 0.521405,0.618066 v 1.883126 c 0,0.0829 0.06844,0.149931 0.1524,0.149931 h 1.032932 c 0.08396,0 0.152047,-0.06703 0.152047,-0.149931 v -2.316336 c 0,-0.409928 -0.129469,-0.761999 -0.374297,-1.018469 -0.247297,-0.258585 -0.58808,-0.395463 -0.98566,-0.395463" style="fill:#feffff;fill-opacity:1;fill-rule:nonzero;stroke:none;stroke-width:0.352777" id="path2668"></path><path d="m 51.626184,45.235304 c 0,0.452966 -0.297039,0.769407 -0.721783,0.769407 -0.425096,0 -0.721782,-0.316441 -0.721782,-0.769407 0,-0.452966 0.296686,-0.769407 0.721782,-0.769407 0.424744,0 0.721783,0.316441 0.721783,0.769407 m -0.364419,-1.99037 c -0.405694,0 -0.724605,0.122414 -0.976135,0.373944 l -0.05186,0.05256 v -0.07338 -1.836559 c 0,-0.0829 -0.06844,-0.14993 -0.1524,-0.14993 h -1.03293 c -0.08396,0 -0.152047,0.06703 -0.152047,0.14993 v 5.213344 c 0,0.08326 0.06809,0.150283 0.152047,0.150283 h 0.974018 c 0.08396,0 0.1524,-0.06703 0.1524,-0.150283 v -0.15628 -0.07867 l 0.05292,0.05856 c 0.261408,0.287513 0.60078,0.427213 1.038224,0.427213 0.992363,0 1.740604,-0.857249 1.740604,-1.994251 0,-1.132415 -0.750005,-1.986489 -1.744837,-1.986489" style="fill:#feffff;fill-opacity:1;fill-rule:nonzero;stroke:none;stroke-width:0.352777" id="path2672"></path><path d="m 56.269828,45.235304 c 0,0.452966 -0.296686,0.769407 -0.721783,0.769407 -0.424744,0 -0.721782,-0.316441 -0.721782,-0.769407 0,-0.452966 0.297038,-0.769407 0.721782,-0.769407 0.425097,0 0.721783,0.316441 0.721783,0.769407 m -0.721783,-1.99037 c -1.211084,0 -2.090558,0.837141 -2.090558,1.99037 0,1.153229 0.879474,1.99037 2.090558,1.99037 1.211791,0 2.090912,-0.837141 2.090912,-1.99037 0,-1.153229 -0.879121,-1.99037 -2.090912,-1.99037" style="fill:#feffff;fill-opacity:1;fill-rule:nonzero;stroke:none;stroke-width:0.352777" id="path2676"></path><path d="m 41.900006,46.00457 c -0.425097,0 -0.721783,-0.316441 -0.721783,-0.769407 0,-0.452967 0.296686,-0.769055 0.721783,-0.769055 0.424744,0 0.721783,0.316088 0.721783,0.769055 0,0.452966 -0.297039,0.769407 -0.721783,0.769407 m 2.008009,0.708024 v -3.213096 c 0,-0.0829 -0.06809,-0.150283 -0.1524,-0.150283 h -0.977899 c -0.08396,0 -0.152047,0.06738 -0.152047,0.150283 v 0.156633 0.08255 l -0.05398,-0.0635 c -0.246238,-0.28963 -0.577849,-0.430389 -1.013529,-0.430389 -0.49918,0 -0.933802,0.190853 -1.257652,0.552097 -0.311502,0.347839 -0.483305,0.82303 -0.483305,1.337732 0,0.514702 0.171803,0.989893 0.483305,1.337732 0.32385,0.361244 0.758472,0.552096 1.257652,0.552096 0.421216,0 0.746477,-0.133349 0.994832,-0.40781 l 0.05292,-0.05891 v 0.07867 0.07691 0.164394 c -3.53e-4,0.0053 -7.06e-4,0.01058 -7.06e-4,0.01588 v 0.239183 c 0,0.487186 -0.402519,0.883707 -0.89676,0.883707 -0.288572,0 -0.561975,-0.138994 -0.730955,-0.37218 -0.02928,-0.04057 -0.0762,-0.06279 -0.124178,-0.06279 -0.02187,0 -0.0441,0.0049 -0.06491,0.01446 l -0.909812,0.426155 c -0.03881,0.01834 -0.06809,0.0515 -0.08043,0.09172 -0.01235,0.04057 -0.0074,0.08396 0.01446,0.120297 0.395111,0.658283 1.121832,1.067152 1.895826,1.067152 1.213201,0 2.200625,-0.972608 2.200625,-2.168523 v -0.239183 z" style="fill:#feffff;fill-opacity:1;fill-rule:nonzero;stroke:none;stroke-width:0.352777" id="path2680"></path><path d="m 60.603734,43.255835 c -0.06174,-0.0074 -0.121003,-0.01094 -0.176036,-0.01094 -0.476955,0 -0.796924,0.151694 -1.007179,0.47766 l -0.05644,0.08678 v -0.103011 -0.206728 c 0,-0.0829 -0.06809,-0.150283 -0.152047,-0.150283 h -0.969785 c -0.08431,0 -0.1524,0.06738 -0.1524,0.150283 v 3.47521 c 0,0.08326 0.06809,0.150283 0.1524,0.150283 h 1.03646 c 0.08396,0 0.1524,-0.06703 0.1524,-0.150283 v -1.875012 c 0,-0.406399 0.201789,-0.587374 0.654755,-0.587374 0.125589,0 0.264583,0.01446 0.413455,0.04269 0.0095,0.0021 0.0194,0.0028 0.02893,0.0028 0.03387,0 0.06703,-0.01094 0.09384,-0.03175 0.03457,-0.02646 0.05609,-0.06668 0.05856,-0.109713 l 0.05715,-1.003299 c 0.0046,-0.07902 -0.05398,-0.147814 -0.134055,-0.157339" style="fill:#feffff;fill-opacity:1;fill-rule:nonzero;stroke:none;stroke-width:0.352777" id="path2684"></path><path d="m 62.61707,41.611398 h -1.032932 c -0.08396,0 -0.152047,0.06738 -0.152047,0.150283 v 5.213344 c 0,0.0829 0.06809,0.149931 0.152047,0.149931 h 1.032932 c 0.08396,0 0.1524,-0.06703 0.1524,-0.149931 v -5.213344 c 0,-0.0829 -0.06844,-0.150283 -0.1524,-0.150283" style="fill:#feffff;fill-opacity:1;fill-rule:nonzero;stroke:none;stroke-width:0.352777" id="path2688"></path><path d="m 66.492082,44.944015 c 0,0.487186 -0.31503,0.874888 -0.794102,0.874888 -0.494241,0 -0.849488,-0.396522 -0.849488,-0.883707 v -1.435804 c 0,-0.0829 -0.06844,-0.149931 -0.152752,-0.149931 h -0.999066 c -0.08396,0 -0.152047,0.06703 -0.152047,0.149931 v 1.435804 c 0,1.195915 0.986718,2.168522 2.200272,2.168522 0.237772,0 0.475544,-0.03951 0.706966,-0.117475 l 0.04022,-0.01376 v 0.04233 0.04621 c 0,0.530577 -0.437797,0.962024 -0.976135,0.962024 -0.319264,0 -0.619124,-0.154869 -0.802921,-0.414866 -0.02928,-0.04127 -0.07655,-0.06421 -0.124884,-0.06421 -0.02223,0 -0.04445,0.0046 -0.06562,0.01446 l -0.908755,0.425803 c -0.0388,0.01799 -0.06809,0.05115 -0.08043,0.09137 -0.01235,0.04022 -0.0071,0.08396 0.01411,0.120297 0.408869,0.685799 1.163107,1.112307 1.968498,1.112307 0.59443,0 1.157463,-0.225072 1.585382,-0.633588 0.42686,-0.407811 0.672746,-0.953205 0.692854,-1.535993 l 0.0018,-0.05539 v -0.0053 -3.578573 c 0,-0.0829 -0.06809,-0.149931 -0.152047,-0.149931 h -0.999065 c -0.08467,0 -0.152753,0.06703 -0.152753,0.149931 z" style="fill:#feffff;fill-opacity:1;fill-rule:nonzero;stroke:none;stroke-width:0.352777" id="path2692"></path><path d="m 36.212846,44.848236 h -0.03387 -1.34902 -0.03387 l 0.0035,-0.03281 c 0.03669,-0.357717 0.339372,-0.627591 0.704849,-0.627591 0.365125,0 0.668513,0.269874 0.704849,0.627238 z m -0.71896,-1.610782 c -0.582083,0 -1.081263,0.194381 -1.442154,0.56268 -0.359833,0.366536 -0.550333,0.872419 -0.550333,1.462615 0,0.574675 0.194733,1.064683 0.56268,1.416754 0.368652,0.352425 0.881943,0.538692 1.48484,0.538692 0.639233,0 1.187096,-0.177095 1.585029,-0.51188 0.03422,-0.02893 0.05398,-0.07091 0.05362,-0.115006 -3.53e-4,-0.0441 -0.02046,-0.08608 -0.05468,-0.1143 l -0.684035,-0.563738 c -0.02822,-0.02328 -0.06315,-0.03493 -0.09772,-0.03493 -0.0321,0 -0.06456,0.0099 -0.09172,0.03034 -0.194381,0.144286 -0.42298,0.224013 -0.643819,0.224013 -0.385233,0 -0.630061,-0.163688 -0.728485,-0.486127 l -0.01164,-0.03845 h 0.04092 2.375956 c 0.07973,0 0.14605,-0.06068 0.151694,-0.138994 0.0042,-0.05256 0.01094,-0.153811 0.01094,-0.2413 0,-0.578202 -0.189441,-1.075618 -0.546805,-1.43792 -0.35701,-0.361597 -0.84596,-0.55245 -1.414284,-0.55245" style="fill:#feffff;fill-opacity:1;fill-rule:nonzero;stroke:none;stroke-width:0.352777" id="path2696"></path><path d="m 22.388029,43.983614 c -0.709435,0 -1.243188,0.558094 -1.243188,1.259415 0,0.709083 0.533753,1.259063 1.243188,1.259063 0.72531,0 1.251301,-0.573616 1.251301,-1.259063 0,-0.685799 -0.534105,-1.259415 -1.251301,-1.259415 m 1.267529,3.13231 v -0.446263 c -0.318911,0.37465 -0.757413,0.54998 -1.267529,0.54998 -1.123949,0 -2.000601,-0.868891 -2.000601,-1.976612 0,-1.123948 0.892527,-1.984725 2.000601,-1.984725 0.510116,0 0.940505,0.183091 1.267529,0.557741 v -0.486128 h 0.765174 v 3.786007 z" style="fill:#feffff;fill-opacity:1;fill-rule:nonzero;stroke:none;stroke-width:0.352777" id="path2700"></path><path d="m 74.361029,46.279172 c -0.350661,0.565855 -0.988129,0.940505 -1.705679,0.940505 -1.091846,0 -1.984725,-0.884766 -1.984725,-1.976965 0,-1.083732 0.877004,-1.984373 1.984725,-1.984373 0.709788,0 1.339496,0.37465 1.690157,0.932391 l -0.645583,0.366536 C 73.48473,44.214719 73.093853,43.98365 72.65535,43.98365 c -0.693207,0 -1.226959,0.589843 -1.226959,1.267176 0,0.677685 0.541513,1.251301 1.243187,1.251301 0.454025,0 0.836788,-0.23883 1.051982,-0.597605 z" style="fill:#feffff;fill-opacity:1;fill-rule:nonzero;stroke:none;stroke-width:0.352777" id="path2704"></path><path d="m 76.831846,43.983614 c -0.709435,0 -1.235426,0.597958 -1.235426,1.267176 0,0.677686 0.541513,1.251302 1.235426,1.251302 0.701321,0 1.235426,-0.589844 1.235426,-1.267177 0,-0.685446 -0.54998,-1.251301 -1.235426,-1.251301 m -0.0081,3.236027 c -1.091846,0 -1.984725,-0.884766 -1.984725,-1.976612 0,-1.084085 0.877004,-1.984725 1.984725,-1.984725 1.09996,0 2.000248,0.892526 2.000248,1.984725 0,1.084085 -0.900288,1.976612 -2.000248,1.976612" style="fill:#feffff;fill-opacity:1;fill-rule:nonzero;stroke:none;stroke-width:0.352777" id="path2708"></path><path d="m 84.658072,47.11596 v -1.984726 c 0,-0.749299 -0.191205,-1.147584 -0.781049,-1.147584 -0.597605,0 -0.908755,0.398285 -0.908755,1.203323 v 1.928987 h -0.772935 v -1.984726 c 0,-0.75706 -0.191205,-1.147584 -0.781049,-1.147584 -0.598311,0 -0.908755,0.406399 -0.908755,1.203323 v 1.928987 h -0.765174 v -3.786007 h 0.765174 v 0.4064 c 0.286808,-0.318911 0.58173,-0.478014 1.036108,-0.478014 0.51823,0 0.980368,0.207081 1.21179,0.701322 0.366536,-0.558094 0.820913,-0.701322 1.259062,-0.701322 0.844549,0 1.410757,0.525991 1.410757,1.71344 v 2.144181 z" style="fill:#feffff;fill-opacity:1;fill-rule:nonzero;stroke:none;stroke-width:0.352777" id="path2712"></path><path d="m 88.602687,46.502233 c 0.717196,0 1.251301,-0.54998 1.251301,-1.259415 0,-0.701322 -0.534105,-1.259063 -1.24354,-1.259063 -0.709082,0 -1.243187,0.557741 -1.243187,1.259063 0,0.685446 0.502002,1.259415 1.235426,1.259415 m -2.024589,2.630308 v -5.802482 h 0.765174 v 0.486127 c 0.31891,-0.37465 0.75706,-0.558094 1.267176,-0.558094 1.108074,0 2.000601,0.860777 2.000601,1.984726 0,1.108073 -0.876652,1.976964 -2.000601,1.976964 -0.510116,0 -0.948266,-0.17533 -1.267176,-0.550333 v 2.463092 z" style="fill:#feffff;fill-opacity:1;fill-rule:nonzero;stroke:none;stroke-width:0.352777" id="path2716"></path><path d="m 93.208796,43.983614 c -0.709435,0 -1.243188,0.558094 -1.243188,1.259415 0,0.709083 0.533753,1.259063 1.243188,1.259063 0.725663,0 1.251654,-0.573616 1.251654,-1.259063 0,-0.685799 -0.534105,-1.259415 -1.251654,-1.259415 m 1.267529,3.13231 v -0.446263 c -0.318911,0.37465 -0.757413,0.54998 -1.267529,0.54998 -1.123949,0 -2.000601,-0.868891 -2.000601,-1.976612 0,-1.123948 0.89288,-1.984725 2.000601,-1.984725 0.510116,0 0.940505,0.183091 1.267529,0.557741 v -0.486128 h 0.765174 v 3.786007 z" style="fill:#feffff;fill-opacity:1;fill-rule:nonzero;stroke:none;stroke-width:0.352777" id="path2720"></path><path d="m 99.130552,47.11596 v -1.984726 c 0,-0.75706 -0.294922,-1.147584 -0.92463,-1.147584 -0.654049,0 -0.964493,0.422274 -0.964493,1.203323 v 1.928987 h -0.764821 v -3.786007 h 0.764821 v 0.4064 c 0.255058,-0.286808 0.565855,-0.478014 1.100313,-0.478014 0.899935,0 1.561745,0.525991 1.561745,1.71344 v 2.144181 z" style="fill:#feffff;fill-opacity:1;fill-rule:nonzero;stroke:none;stroke-width:0.352777" id="path2724"></path><path d="m 101.35368,49.132647 0.69321,-1.944862 -1.54623,-3.857973 h 0.83679 l 1.08409,2.845502 1.02023,-2.845502 h 0.76517 l -2.0962,5.802835 z" style="fill:#feffff;fill-opacity:1;fill-rule:nonzero;stroke:none;stroke-width:0.352777" id="path2728"></path><path d="m 68.818579,43.931685 c 0.08961,0 0.166158,-0.01305 0.166158,-0.106186 0,-0.08784 -0.06703,-0.102658 -0.166158,-0.102658 h -0.129117 v 0.208844 z m 0.146403,0.394758 -0.169334,-0.288572 h -0.106186 v 0.287161 h -0.119238 v -0.709788 h 0.216958 c 0.161572,0 0.319616,0.01305 0.319616,0.20073 0,0.123825 -0.06809,0.187678 -0.176036,0.212019 l 0.176036,0.29845 z m 0.355952,-0.354189 c 0,-0.278694 -0.223661,-0.512232 -0.507647,-0.512232 -0.281869,0 -0.503766,0.231774 -0.503766,0.512232 0,0.280811 0.221897,0.512586 0.50553,0.512586 0.282222,0 0.505883,-0.231775 0.505883,-0.512586 m -0.505883,0.623358 c -0.342547,0 -0.623005,-0.277283 -0.623005,-0.623358 0,-0.345721 0.280458,-0.623004 0.624416,-0.623004 0.344664,0 0.621947,0.280458 0.621947,0.623004 0,0.342547 -0.279047,0.623358 -0.623358,0.623358" style="fill:#feffff;fill-opacity:1;fill-rule:nonzero;stroke:none;stroke-width:0.352777" id="path2732"></path><path d="m 116.60923,26.272461 c 0.36019,0 0.63006,0.314325 0.63006,0.703085 0,0.388761 -0.26987,0.703086 -0.62477,0.697794 -0.37041,0 -0.64523,-0.309033 -0.64523,-0.703085 0,-0.383469 0.27482,-0.697794 0.63465,-0.697794 z m 0,-0.149225 c -0.45508,0 -0.81562,0.372886 -0.81562,0.847019 0,0.484716 0.36054,0.857602 0.81562,0.857602 0.45508,0 0.80504,-0.372886 0.80504,-0.857602 0,-0.474133 -0.34996,-0.847019 -0.79975,-0.847019 z m -0.14499,0.538338 c 0.0247,-0.0056 0.06,-0.01094 0.1203,-0.01094 0.14463,0 0.19967,0.06421 0.19967,0.149225 0,0.101247 -0.10513,0.138289 -0.21484,0.138289 h -0.10513 z m 0,0.404636 h 0.0998 c 0.11501,0 0.17004,0.04269 0.19015,0.143933 0.0247,0.117122 0.0448,0.19685 0.0702,0.228953 h 0.15946 c -0.0198,-0.0321 -0.0395,-0.08537 -0.0649,-0.218369 -0.0243,-0.117122 -0.0649,-0.18662 -0.13476,-0.218722 v -0.01023 c 0.0847,-0.0321 0.16016,-0.101247 0.16016,-0.208139 0,-0.08502 -0.0349,-0.154516 -0.0854,-0.191558 -0.0497,-0.04269 -0.1196,-0.0695 -0.25965,-0.0695 -0.115,0 -0.20496,0.01094 -0.29033,0.02681 v 0.889705 h 0.15522 z" style="fill:#feffff;fill-opacity:1;fill-rule:evenodd;stroke:none;stroke-width:0.352777" id="path2736"></path><path d="m 13.904827,28.356246 h -1.905703 v -1.298574 h 2.018239 V 26.30414 h -2.941811 v 5.029547 h 3.054347 v -0.753885 h -2.130775 v -1.477079 h 1.905703 z" style="fill:#feffff;fill-opacity:1;fill-rule:evenodd;stroke:none;stroke-width:0.352777" id="path2740"></path><path d="m 17.814341,31.333758 1.748365,-5.029547 h -0.982838 l -0.735541,2.298344 c -0.202494,0.611364 -0.382763,1.223432 -0.517877,1.820685 h -0.01517 c -0.135113,-0.611716 -0.29986,-1.201207 -0.494946,-1.835854 l -0.690033,-2.283175 h -1.005768 l 1.635829,5.029547 z" style="fill:#feffff;fill-opacity:1;fill-rule:evenodd;stroke:none;stroke-width:0.352777" id="path2744"></path><path d="m 23.539742,28.356246 h -1.905703 v -1.298574 h 2.017886 V 26.30414 H 20.71082 v 5.029547 h 3.053994 v -0.753885 h -2.130775 v -1.477079 h 1.905703 z" style="fill:#feffff;fill-opacity:1;fill-rule:evenodd;stroke:none;stroke-width:0.352777" id="path2748"></path><path d="m 26.091169,27.005426 c 0.08996,-0.02258 0.277636,-0.04445 0.570088,-0.04445 0.600075,0 0.990599,0.253647 0.990599,0.805744 0,0.500238 -0.390524,0.828321 -1.012824,0.828321 h -0.547863 z m -0.91581,4.328226 h 0.91581 v -2.066923 h 0.464961 c 0.525638,0.01482 0.765527,0.223661 0.908401,0.880885 0.142522,0.626533 0.262467,1.036813 0.337608,1.186038 h 0.952852 C 28.649863,31.139624 28.51475,30.557189 28.357058,29.930656 28.229706,29.445587 28.012042,29.095279 27.651856,28.960518 v -0.02222 c 0.472722,-0.171802 0.91581,-0.611716 0.91581,-1.261179 0,-0.425449 -0.158044,-0.77611 -0.43568,-1.007885 -0.337608,-0.28328 -0.832907,-0.402519 -1.56104,-0.402519 -0.532341,0 -1.049865,0.04445 -1.395587,0.104775 z" style="fill:#feffff;fill-opacity:1;fill-rule:evenodd;stroke:none;stroke-width:0.352777" id="path2752"></path><path d="m 32.003965,31.333758 v -2.119839 l 1.680984,-2.909708 h -1.043162 l -0.607836,1.291165 c -0.172508,0.365477 -0.315383,0.678744 -0.442736,0.999771 h -0.01517 C 31.440932,28.251542 31.31358,27.967909 31.141072,27.595376 l -0.607836,-1.291165 h -1.050571 l 1.598434,2.932285 v 2.097262 z" style="fill:#feffff;fill-opacity:1;fill-rule:evenodd;stroke:none;stroke-width:0.352777" id="path2756"></path><path d="m 35.935528,31.333758 h 0.923218 V 27.07256 h 1.45556 v -0.768349 h -3.819168 v 0.768349 h 1.44039 z" style="fill:#feffff;fill-opacity:1;fill-rule:evenodd;stroke:none;stroke-width:0.352777" id="path2760"></path><path d="m 39.507399,26.304175 v 5.029547 h 0.923218 v -2.2165 h 2.138537 v 2.2165 h 0.922866 v -5.029547 h -0.922866 v 2.014359 h -2.138537 v -2.014359 z" style="fill:#feffff;fill-opacity:1;fill-rule:evenodd;stroke:none;stroke-width:0.352777" id="path2764"></path><path id="path2766" style="fill:#feffff;fill-opacity:1;fill-rule:evenodd;stroke:none;stroke-width:0.352777" d="m 45.15032,31.333582 h 0.922513 V 26.304034 H 45.15032 Z"></path><path d="m 48.579704,31.333758 v -1.798106 c 0,-0.828674 -0.0074,-1.492954 -0.04551,-2.142065 l 0.02293,-0.0074 c 0.24765,0.566913 0.585258,1.18639 0.908049,1.731079 l 1.320446,2.2165 h 0.952852 v -5.029547 h -0.855485 v 1.753656 c 0,0.768349 0.02258,1.41746 0.0829,2.089501 h -0.01517 c -0.23248,-0.544689 -0.525638,-1.127124 -0.863246,-1.686982 l -1.30563,-2.156175 h -1.050218 v 5.029547 z" style="fill:#feffff;fill-opacity:1;fill-rule:evenodd;stroke:none;stroke-width:0.352777" id="path2770"></path><path d="m 57.456324,28.557859 h -1.785759 v 0.723899 h 0.892879 v 1.253418 c -0.119944,0.05962 -0.367594,0.104422 -0.698146,0.104422 -1.049866,0 -1.75542,-0.679096 -1.75542,-1.820684 0,-1.171573 0.757766,-1.805867 1.838323,-1.805867 0.532694,0 0.870301,0.09701 1.147937,0.216605 l 0.202847,-0.746477 c -0.23248,-0.104422 -0.720371,-0.231069 -1.343376,-0.231069 -1.673223,0 -2.813752,1.022349 -2.813752,2.611611 -0.0078,0.760941 0.255058,1.425221 0.705554,1.85067 0.479778,0.455436 1.12536,0.671688 1.980845,0.671688 0.675216,0 1.305277,-0.164041 1.628068,-0.283633 z" style="fill:#feffff;fill-opacity:1;fill-rule:evenodd;stroke:none;stroke-width:0.352777" id="path2774"></path><path d="m 62.851666,31.333758 0.584552,-2.365725 c 0.150636,-0.574675 0.248003,-1.059743 0.338314,-1.597023 h 0.01482 c 0.05997,0.544688 0.149931,1.022348 0.277636,1.597023 l 0.525638,2.365725 h 0.989894 l 1.358546,-5.029547 h -0.937683 l -0.525285,2.275767 c -0.135114,0.612068 -0.255411,1.186743 -0.345369,1.738487 h -0.01517 c -0.07479,-0.543983 -0.179564,-1.104546 -0.307974,-1.701446 L 64.30723,26.304211 h -0.967669 l -0.548216,2.275767 c -0.142522,0.633941 -0.285044,1.231546 -0.367594,1.761064 h -0.01517 c -0.08255,-0.499532 -0.202498,-1.141587 -0.32985,-1.753656 L 61.598248,26.304211 H 60.61541 l 1.237896,5.029547 z" style="fill:#feffff;fill-opacity:1;fill-rule:evenodd;stroke:none;stroke-width:0.352777" id="path2778"></path><path id="path2780" style="fill:#feffff;fill-opacity:1;fill-rule:evenodd;stroke:none;stroke-width:0.352777" d="m 68.156345,31.333582 h 0.923218 v -5.029548 h -0.923218 z"></path><path d="m 71.705885,31.333758 h 0.922866 V 27.07256 h 1.455206 v -0.768349 h -3.818815 v 0.768349 h 1.440743 z" style="fill:#feffff;fill-opacity:1;fill-rule:evenodd;stroke:none;stroke-width:0.352777" id="path2784"></path><path d="m 75.277086,26.304175 v 5.029547 h 0.923218 v -2.2165 h 2.13889 v 2.2165 h 0.922865 v -5.029547 h -0.922865 v 2.014359 h -2.13889 v -2.014359 z" style="fill:#feffff;fill-opacity:1;fill-rule:evenodd;stroke:none;stroke-width:0.352777" id="path2788"></path><path id="path2790" style="fill:#feffff;fill-opacity:1;fill-rule:evenodd;stroke:none;stroke-width:0.352777" d="m 80.920536,31.333582 h 0.922513 v -5.029548 h -0.922513 z"></path><path d="m 84.349744,31.333758 v -1.798106 c 0,-0.828674 -0.0078,-1.492954 -0.04551,-2.142065 l 0.02293,-0.0074 c 0.247297,0.566913 0.585258,1.18639 0.908049,1.731079 l 1.320446,2.2165 h 0.952852 v -5.029547 h -0.855838 v 1.753656 c 0,0.768349 0.02293,1.41746 0.08325,2.089501 h -0.01517 c -0.232825,-0.544697 -0.525983,-1.127132 -0.863238,-1.68699 l -1.305277,-2.156175 h -1.050571 v 5.029547 z" style="fill:#feffff;fill-opacity:1;fill-rule:evenodd;stroke:none;stroke-width:0.352777" id="path2794"></path><path d="m 92.392998,27.005426 c 0.09031,-0.02258 0.277636,-0.04445 0.570441,-0.04445 0.600074,0 0.990599,0.253647 0.990599,0.805744 0,0.500238 -0.390525,0.828321 -1.013177,0.828321 h -0.547863 z m -0.915457,4.328226 h 0.915457 v -2.066923 h 0.465313 c 0.525991,0.01482 0.765527,0.223661 0.908755,0.880885 0.142169,0.626533 0.262466,1.036813 0.336902,1.186038 h 0.953205 C 94.952045,31.139624 94.816931,30.557189 94.65924,29.930656 94.531887,29.445587 94.314224,29.095279 93.954038,28.960518 v -0.02222 c 0.472722,-0.171802 0.915457,-0.611716 0.915457,-1.261179 0,-0.425449 -0.157691,-0.77611 -0.435327,-1.007885 -0.337255,-0.28328 -0.832555,-0.402519 -1.560687,-0.402519 -0.532341,0 -1.050218,0.04445 -1.39594,0.104775 z" style="fill:#feffff;fill-opacity:1;fill-rule:evenodd;stroke:none;stroke-width:0.352777" id="path2798"></path><path d="m 99.176731,28.356246 h -1.906409 v -1.298574 h 2.018945 V 26.30414 h -2.941458 v 5.029547 h 3.053994 v -0.753885 h -2.131481 v -1.477079 h 1.906409 z" style="fill:#feffff;fill-opacity:1;fill-rule:evenodd;stroke:none;stroke-width:0.352777" id="path2802"></path><path d="m 101.97553,29.213989 0.39017,-1.238249 c 0.09,-0.298802 0.1651,-0.649463 0.23989,-0.940151 h 0.0152 c 0.0751,0.290688 0.15734,0.633941 0.25541,0.940151 l 0.39793,1.238249 z m 1.45591,0.694266 0.45755,1.425573 h 0.99025 L 103.236,26.304281 h -1.17827 l -1.62031,5.029547 h 0.95321 l 0.43497,-1.425573 z" style="fill:#feffff;fill-opacity:1;fill-rule:evenodd;stroke:none;stroke-width:0.352777" id="path2806"></path><path d="m 109.50164,30.460493 c -0.24024,0.11183 -0.63041,0.186619 -1.00577,0.186619 -1.11054,0 -1.76318,-0.70873 -1.76318,-1.813276 0,-1.208968 0.7433,-1.851023 1.77094,-1.851023 0.42051,0 0.75071,0.08961 0.9906,0.194028 l 0.2025,-0.731307 c -0.18768,-0.09666 -0.62301,-0.223661 -1.23049,-0.223661 -1.54552,0 -2.70122,1.000124 -2.70122,2.656413 0,1.529996 0.97543,2.537175 2.58127,2.537175 0.60713,0 1.08797,-0.119238 1.30563,-0.231069 z" style="fill:#feffff;fill-opacity:1;fill-rule:evenodd;stroke:none;stroke-width:0.352777" id="path2810"></path><path d="m 111.04025,26.304175 v 5.029547 h 0.92251 v -2.2165 h 2.13889 v 2.2165 h 0.92322 v -5.029547 h -0.92322 v 2.014359 h -2.13889 v -2.014359 z" style="fill:#feffff;fill-opacity:1;fill-rule:evenodd;stroke:none;stroke-width:0.352777" id="path2814"></path><path d="M 14.79125,13.670688 C 13.960812,12.94573 12.86191,12.528395 11.712562,12.298384 h -7.06e-4 L 8.7354733,11.718771 C 7.8461215,11.533915 6.6463256,11.328599 5.694885,10.874574 5.2189883,10.648444 4.8101193,10.362694 4.5268391,10.003214 4.2446171,9.6426758 4.0770479,9.214404 4.075284,8.6425519 4.0756368,8.0276609 4.21322,7.5369475 4.4411142,7.1333702 4.7833082,6.5297681 5.3431659,6.1124324 5.997568,5.8446744 6.6509117,5.5772691 7.3917442,5.4650859 8.0560241,5.4654387 8.934087,5.4647331 10.264411,5.640769 11.442687,6.1071408 c 0.589491,0.2324803 1.140529,0.5372799 1.581854,0.9196906 0.44203,0.3831163 0.772935,0.8389046 0.944032,1.3860624 l 3.53e-4,0.00106 v 7.056e-4 c 0.04904,0.152047 0.08537,0.2878663 0.125589,0.4032245 0.02117,0.058561 0.04092,0.1114777 0.07796,0.1721554 l 0.08537,0.098425 c 0.04092,0.034219 0.109008,0.067381 0.183091,0.066322 0.08184,-3.527e-4 0.141817,-0.034219 0.179917,-0.063147 0.06667,-0.053269 0.0949,-0.1012471 0.125235,-0.1499304 0.0822,-0.1428749 0.145698,-0.3242024 0.214842,-0.5199939 l 7.05e-4,-0.00247 0.781402,-2.3893613 -0.199319,-0.109361 C 13.578049,4.8417283 11.02641,4.2571761 8.8130843,4.255765 6.8078977,4.2564706 4.9720441,4.7157867 3.6149095,5.6330079 2.2581277,6.5449375 1.3839453,7.951461 1.3878258,9.7488618 c -0.00106,0.7394212 0.2077859,1.3765372 0.5517439,1.9011172 0.5171716,0.788105 1.320093,1.328207 2.1808698,1.718379 0.8618352,0.389466 1.7885814,0.628649 2.5749222,0.78881 h -7.056e-4 l 3.1788771,0.658283 c 1.0385768,0.220485 1.9635588,0.484363 2.5967948,0.940151 0.317499,0.227542 0.563738,0.497769 0.735188,0.839258 0.170744,0.341488 0.270227,0.760235 0.270227,1.297515 -7.05e-4,0.676627 -0.184502,1.222021 -0.495652,1.682043 -0.465666,0.688268 -1.239307,1.180746 -2.120192,1.494012 C 9.9811303,21.382755 9.0025258,21.517515 8.1569184,21.517163 6.9715864,21.518221 5.420777,21.225416 4.1550117,20.58195 3.5214235,20.260922 2.9594491,19.853465 2.5431718,19.362046 2.1265417,18.869568 1.8524337,18.299127 1.7765865,17.6225 l -0.00106,-0.01094 -0.00176,-0.01129 c -0.021167,-0.108302 -0.063853,-0.20708 -0.1333498,-0.287513 -0.068792,-0.07902 -0.1725082,-0.143581 -0.2966858,-0.143581 -0.1142999,-0.0011 -0.2243664,0.04798 -0.3012719,0.122061 -0.0730249,0.0695 -0.12029711,0.157339 -0.14640264,0.250825 l -0.83220186,2.661353 -0.03457218,0.08749 -0.01763887,0.0635 C 0.00705514,20.378397 0.00105792,20.3978 -4.0792001e-7,20.4486 7.0514686e-4,20.521978 0.02363568,20.572072 0.0419801,20.604175 c 0.06843882,0.103716 0.11006655,0.115005 0.16580537,0.154164 0.0536222,0.0321 0.11782765,0.06421 0.19931923,0.100541 2.0566922,1.017057 5.045775,1.865134 7.4474835,1.867604 1.4767261,-0.0014 3.5154268,-0.359833 5.2193418,-1.264355 0.850899,-0.452966 1.619601,-1.044573 2.180869,-1.809748 0.561622,-0.76341 0.909461,-1.705678 0.908402,-2.814105 0.0035,-1.392765 -0.54116,-2.445805 -1.371951,-3.167588" style="fill:#feffff;fill-opacity:1;fill-rule:nonzero;stroke:none;stroke-width:0.352777" id="path2818"></path><path d="M 31.765911,21.86232 C 31.658314,21.79635 31.51932,21.733203 31.344695,21.633367 l -0.0042,-0.0025 -0.0042,-0.0021 c -0.101247,-0.05362 -0.186972,-0.136877 -0.269522,-0.282222 -0.254352,-0.43321 -0.373591,-1.428042 -0.367947,-2.975324 V 13.206207 C 30.703426,11.23524 29.941766,9.8562331 28.83334,9.0159173 27.72703,8.1731322 26.301809,7.845402 24.938677,7.8443436 c -2.028823,-0.006 -3.805762,0.9274518 -4.814,2.6902804 V -4.1308e-7 L 19.795116,0.10018837 17.042747,0.93662356 c -0.04763,0.00635 -0.08255,0.0201083 -0.116417,0.0338666 -0.06526,0.0282222 -0.119944,0.0634999 -0.173214,0.10830264 l -0.07937,0.084667 c -0.02469,0.0381 -0.06456,0.086431 -0.06879,0.202847 -0.0014,0.085019 0.03104,0.1785054 0.07867,0.2384775 0.07197,0.091369 0.147108,0.122061 0.203906,0.1449915 0.05785,0.021872 0.106891,0.032808 0.141111,0.041981 l 0.0088,0.00247 0.0085,0.00141 0.01764,0.010936 c 0.02681,0.019756 0.08043,0.085372 0.131586,0.1922637 0.09207,0.1859137 0.180975,0.4843633 0.251884,0.8258518 0.216605,1.0272878 0.294569,2.4578001 0.29351,2.8705497 v 13.88814 c 3.53e-4,0.420863 -0.03245,0.83326 -0.146402,1.176865 -0.115711,0.345017 -0.29845,0.619478 -0.631472,0.823736 l -0.0014,0.0011 -0.0018,0.0011 c -0.113594,0.07126 -0.22613,0.127 -0.323849,0.181328 -0.04904,0.02787 -0.09455,0.05397 -0.144286,0.09454 l -0.08079,0.08819 c -0.02752,0.04057 -0.05786,0.107244 -0.05786,0.189441 -0.0011,0.07197 0.01976,0.156986 0.06456,0.223308 0.06844,0.1016 0.159456,0.141817 0.227895,0.160867 0.07091,0.0194 0.132997,0.02258 0.192969,0.02293 0.443088,-3.53e-4 1.371598,-0.05292 2.094792,-0.05292 0.722488,0 1.650998,0.05256 2.094439,0.05292 0.06421,-0.0018 0.121003,0.0046 0.214842,-0.0194 0.04586,-0.01305 0.11183,-0.04057 0.168274,-0.109008 0.05715,-0.06809 0.07832,-0.161925 0.07691,-0.22613 -0.0025,-0.103011 -0.04057,-0.157339 -0.0635,-0.191205 -0.0441,-0.05786 -0.07726,-0.08008 -0.113594,-0.108303 -0.103364,-0.07514 -0.239889,-0.150636 -0.399344,-0.250825 -0.335135,-0.2315 -0.511171,-0.501022 -0.633584,-0.98468 C 20.158477,20.17428 20.123904,19.4846 20.12461,18.529279 v -4.058704 c 0,-1.496481 0.450144,-2.857849 1.212143,-3.836454 0.76341,-0.9786042 1.825976,-1.5783258 3.097386,-1.5800897 1.032932,0.00212 1.940981,0.2744608 2.606672,1.0502187 0.667454,0.77611 1.121832,2.110667 1.121832,4.313762 v 5.165366 c 3.53e-4,0.420511 -0.03175,0.842785 -0.138995,1.201207 -0.108655,0.358775 -0.281163,0.648758 -0.575027,0.859719 -0.07055,0.04551 -0.159455,0.08008 -0.256822,0.125941 -0.04974,0.0247 -0.104069,0.05115 -0.165099,0.106892 -0.05997,0.0515 -0.128764,0.166511 -0.125942,0.288924 0,0.05997 0.01094,0.135467 0.05256,0.206728 0.03069,0.05292 0.07726,0.09596 0.120297,0.12065 0.133703,0.06879 0.205316,0.04798 0.262114,0.05327 0.36971,-3.53e-4 1.294693,-0.05292 2.095144,-0.05292 0.800452,0 1.723671,0.05256 2.018593,0.05292 0.07161,-7.05e-4 0.150283,-0.0067 0.239536,-0.03492 0.0448,-0.01517 0.09419,-0.03457 0.150635,-0.08184 0.05468,-0.04339 0.122767,-0.145697 0.121003,-0.263878 -0.0018,-0.104422 -0.04515,-0.166863 -0.07161,-0.20073 -0.0508,-0.05927 -0.08573,-0.07796 -0.123119,-0.103011" style="fill:#feffff;fill-opacity:1;fill-rule:nonzero;stroke:none;stroke-width:0.352777" id="path2822"></path><path d="m 35.28543,12.311825 c 0.278694,-1.079499 0.725663,-1.926165 1.36419,-2.518125 0.704144,-0.6512271 1.654173,-1.0145878 2.947102,-1.0159989 1.134885,0 2.111726,0.3651246 2.800347,1.0145878 0.634647,0.6004271 1.037166,1.4425071 1.097138,2.5195361 z m 11.408468,4.438998 c -7.06e-4,-0.101247 -0.01658,-0.222955 -0.09913,-0.337961 -0.0829,-0.117475 -0.232481,-0.178505 -0.361244,-0.174272 -0.189795,-0.0025 -0.348545,0.110067 -0.432858,0.230011 -0.08749,0.119944 -0.129117,0.246591 -0.148872,0.363713 h -3.53e-4 c -0.02646,0.163336 -0.161219,0.557036 -0.402872,1.015999 -0.36195,0.693913 -0.965904,1.563157 -1.81504,2.25072 -0.850899,0.687916 -1.939922,1.197679 -3.306935,1.198738 -1.931103,-0.0056 -3.169352,-0.747888 -3.971568,-1.948743 -0.800452,-1.204029 -1.146173,-2.908649 -1.145115,-4.812236 -3.53e-4,-0.316089 0.04762,-0.681566 0.106186,-1.015999 h 11.349907 l -0.0254,-0.300213 C 46.284323,11.357915 45.367102,9.9249332 44.077701,8.9833703 42.787947,8.0396908 41.130599,7.568733 39.445381,7.5680274 37.17032,7.5669691 35.318944,8.502182 34.046123,9.8875388 32.772949,11.272543 32.071275,13.103457 32.07057,14.905797 c 0,2.073978 0.751063,3.99979 2.011184,5.408078 1.259415,1.40864 3.033532,2.299755 5.060944,2.29905 1.733901,0 3.340096,-0.466019 4.639375,-1.340554 1.297516,-0.872772 2.286351,-2.158292 2.772125,-3.774718 0.08255,-0.234245 0.138994,-0.493183 0.1397,-0.74683" style="fill:#feffff;fill-opacity:1;fill-rule:nonzero;stroke:none;stroke-width:0.352777" id="path2826"></path><path d="m 51.399489,21.691787 c -0.0956,-0.04551 -0.196497,-0.08573 -0.288219,-0.124178 -0.140053,-0.05997 -0.256469,-0.171449 -0.362303,-0.35313 -0.157338,-0.27058 -0.267405,-0.693207 -0.328435,-1.188507 -0.06244,-0.495299 -0.08043,-1.06186 -0.08043,-1.628773 V 0.01502749 l -0.31891,0.08184436 -2.775653,0.71155199 -7.05e-4,3.5278e-4 c -0.06562,0.0172861 -0.138642,0.0405694 -0.216958,0.0860777 -0.03881,0.0239889 -0.08079,0.0532694 -0.12312,0.10442211 -0.04127,0.0493888 -0.08502,0.13405537 -0.08431,0.23494977 -0.0011,0.085019 0.03351,0.1633359 0.07091,0.2109608 0.0568,0.073378 0.113241,0.1058333 0.171802,0.1365249 0.05468,0.027869 0.114653,0.049742 0.18415,0.071261 0.01305,0.00741 0.05292,0.040217 0.09842,0.1192388 0.09525,0.1591026 0.197203,0.4698995 0.27693,0.8583074 0.244828,1.1712209 0.333728,3.0469383 0.333022,4.3296369 v 9.355304 c 3.53e-4,1.365248 -0.03245,2.615138 -0.173214,3.553526 -0.06985,0.469194 -0.167922,0.859366 -0.292099,1.139824 -0.124531,0.282575 -0.266347,0.441324 -0.413455,0.509058 -0.168628,0.07549 -0.336903,0.140052 -0.479425,0.210608 -0.07197,0.03598 -0.138289,0.07197 -0.203552,0.127 -0.03281,0.02822 -0.06668,0.06174 -0.09772,0.11183 -0.03034,0.04904 -0.0568,0.120297 -0.05644,0.198614 -3.53e-4,0.04057 0.0074,0.09313 0.02963,0.143933 0.04022,0.09278 0.11677,0.148166 0.171803,0.172508 0.08608,0.03775 0.15628,0.04516 0.250825,0.05397 0.09384,0.0074 0.209197,0.01023 0.361596,0.01023 0.443089,-3.53e-4 1.371599,-0.05292 2.09444,-0.05256 0.723899,-3.53e-4 1.648881,0.05221 1.968145,0.05256 0.07902,-3.53e-4 0.192263,-0.0071 0.305152,-0.02681 0.05715,-0.01094 0.111831,-0.02258 0.174978,-0.0501 l 0.109714,-0.07302 c 0.04092,-0.03775 0.09807,-0.121708 0.09772,-0.230716 -0.0014,-0.142169 -0.07267,-0.239183 -0.128764,-0.294922 -0.08855,-0.08608 -0.179211,-0.131586 -0.275519,-0.179211" style="fill:#feffff;fill-opacity:1;fill-rule:nonzero;stroke:none;stroke-width:0.352777" id="path2830"></path><path d="m 57.477667,21.799349 c -0.08255,-0.05327 -0.16898,-0.09737 -0.251178,-0.144992 -0.08184,-0.04692 -0.157338,-0.09701 -0.207433,-0.14358 l -0.0039,-0.0035 -0.0035,-0.0032 C 56.881481,21.393305 56.749895,21.197161 56.635243,20.91 56.285993,20.048871 56.120893,18.427153 56.123715,16.289322 V 10.240245 H 58.57551 C 58.733555,9.81409 58.923349,9.4108654 59.138896,9.0302186 H 56.123707 V 6.112044 c 3.53e-4,-0.4497912 0.147814,-0.8219713 0.3683,-1.0816155 0.221544,-0.2596441 0.512586,-0.4035773 0.811741,-0.4035773 0.366183,7.056e-4 0.653343,0.1100666 0.899935,0.2751664 0.24518,0.1650998 0.446263,0.3905245 0.611363,0.6187715 l 0.299508,0.4134551 0.96026,-3.1562993 -0.409927,0.062089 c -1.40864,0.215194 -2.867022,0.6201825 -3.999437,1.4202816 -0.56515,0.4004023 -1.04916,0.9034629 -1.390296,1.5310539 -0.341489,0.6272382 -0.536222,1.3765373 -0.535516,2.2496614 v 0.9891878 h -2.019651 l -0.324202,1.2100264 h 0.342547 2.001306 v 9.342956 c 0,0.420864 -0.03175,0.837141 -0.134408,1.199091 -0.103364,0.363008 -0.270228,0.667807 -0.550333,0.904874 l -0.0028,0.0021 -0.0025,0.0025 c -0.06703,0.05997 -0.138289,0.103364 -0.210961,0.149578 l -0.118886,0.08996 -0.07197,0.09208 c -0.02399,0.04198 -0.04445,0.103363 -0.0441,0.16898 -0.0035,0.08396 0.04269,0.188736 0.100188,0.23883 0.08608,0.07726 0.153811,0.08714 0.21837,0.100895 0.06526,0.01094 0.134055,0.01446 0.217663,0.01446 0.37218,-3.53e-4 1.069268,-0.05256 1.791404,-0.05256 0.792338,0 1.319034,0.01305 1.666167,0.02611 0.349603,0.01305 0.507647,0.02611 0.605719,0.02646 0.09031,-0.0011 0.172156,-0.0042 0.267758,-0.0381 0.04727,-0.01799 0.103011,-0.04586 0.155928,-0.105481 0.05327,-0.05785 0.08925,-0.155222 0.08678,-0.237066 3.53e-4,-0.0889 -0.03351,-0.162983 -0.06597,-0.209903 -0.05891,-0.0829 -0.115359,-0.118886 -0.170039,-0.156633" style="fill:#feffff;fill-opacity:1;fill-rule:nonzero;stroke:none;stroke-width:0.352777" id="path2834"></path><path d="m 105.61044,21.87689 c -0.10301,-0.09208 -0.24694,-0.182033 -0.43709,-0.277283 l -0.002,-0.0011 -0.002,-7.06e-4 c -0.14217,-0.06773 -0.23036,-0.123472 -0.29527,-0.196144 -0.049,-0.05539 -0.0924,-0.125942 -0.13512,-0.246944 -0.13123,-0.36195 -0.19473,-1.161696 -0.19226,-2.783767 v -5.165013 c 0.005,-1.96744 -0.72425,-3.3443301 -1.7914,-4.1871153 -1.06504,-0.8449019 -2.4384,-1.1736904 -3.750734,-1.1747487 -1.134179,3.528e-4 -2.257422,0.3072691 -3.193694,0.9129879 -0.650874,0.4205106 -1.211084,0.988835 -1.613251,1.6954481 V 8.1577301 l -2.771419,0.7757575 c -0.03069,0.00917 -0.112536,0.022931 -0.202847,0.056444 -0.04621,0.018344 -0.09843,0.040569 -0.157338,0.092075 -0.05715,0.047272 -0.125589,0.1541638 -0.123473,0.275872 0.0014,0.094897 0.03069,0.1598081 0.06174,0.2137831 0.09278,0.1495776 0.236009,0.2508247 0.428272,0.3104441 v 3.527e-4 c 0.09137,0.033161 0.162983,0.070555 0.228953,0.1298225 0.09631,0.08784 0.198613,0.238477 0.282574,0.570794 0.08255,0.330552 0.137231,0.831849 0.136878,1.568095 v 5.903377 c 3.53e-4,0.729191 -0.03069,1.540226 -0.149578,2.208386 -0.05927,0.333728 -0.14111,0.631119 -0.244121,0.859719 -0.103011,0.230364 -0.225072,0.384527 -0.352072,0.463902 l -0.0021,0.0011 -0.0011,0.0011 c -0.108303,0.07091 -0.2159,0.126294 -0.310092,0.180975 -0.04727,0.02822 -0.09137,0.05433 -0.140405,0.09596 l -0.07832,0.0889 c -0.02681,0.04057 -0.05503,0.105833 -0.05503,0.185208 -7.05e-4,0.07056 0.0187,0.153106 0.06174,0.219075 0.06491,0.101247 0.155928,0.144286 0.224367,0.164041 0.07055,0.02011 0.131938,0.02328 0.190852,0.02364 0.426861,0 1.317624,-0.05256 2.011537,-0.05256 0.69356,0 1.584323,0.05256 2.011537,0.05256 0.06209,-0.0018 0.117122,0.0053 0.211666,-0.01975 0.04586,-0.01376 0.112889,-0.04339 0.167216,-0.112536 0.05503,-0.06879 0.07444,-0.159455 0.07303,-0.221897 -0.0021,-0.09913 -0.03739,-0.153105 -0.05997,-0.186972 -0.04269,-0.05821 -0.07514,-0.08114 -0.110066,-0.109714 -0.100189,-0.07585 -0.231422,-0.151341 -0.384175,-0.251177 -0.319263,-0.229658 -0.489655,-0.499533 -0.607835,-0.984955 -0.1143,-0.484716 -0.147461,-1.174748 -0.146756,-2.130422 v -4.058704 c -3.53e-4,-1.498599 0.433564,-2.862436 1.164871,-3.840688 0.733424,-0.9782517 1.750129,-1.5740927 2.963683,-1.5758565 0.988835,0.00282 1.85385,0.2719913 2.49308,1.0459855 0.64029,0.775052 1.07809,2.113489 1.07773,4.317995 v 3.583865 c 3.6e-4,0.96908 -0.0314,1.799871 -0.15204,2.42217 -0.06,0.31115 -0.14217,0.568677 -0.24483,0.764821 -0.10337,0.19685 -0.2226,0.331611 -0.36971,0.421569 l -0.004,0.0021 -0.004,0.0025 c -0.004,0.0032 -0.0448,0.02434 -0.0938,0.04657 -0.0751,0.03493 -0.17286,0.07691 -0.26881,0.138642 -0.0483,0.0321 -0.0981,0.06879 -0.14605,0.126647 -0.0473,0.05609 -0.0988,0.148166 -0.0991,0.265641 -7.1e-4,0.07549 0.0303,0.148519 0.0639,0.191205 0.061,0.0755 0.11183,0.09384 0.15346,0.112184 0.12206,0.04445 0.23636,0.04868 0.38064,0.0508 0.35596,0 1.2439,-0.05256 2.01189,-0.05256 0.76835,0 1.65347,0.05221 1.93852,0.05256 0.0705,-7.05e-4 0.14781,-0.0071 0.236,-0.03598 0.0444,-0.01587 0.0935,-0.03563 0.14888,-0.08431 0.054,-0.04445 0.11782,-0.145697 0.11606,-0.260349 -0.002,-0.08643 -0.0279,-0.133703 -0.0466,-0.167922 -0.0349,-0.05821 -0.0667,-0.0882 -0.10195,-0.121003" style="fill:#feffff;fill-opacity:1;fill-rule:nonzero;stroke:none;stroke-width:0.352777" id="path2838"></path><path d="m 108.14465,6.4828486 c 0.87312,0 1.58009,-0.7535325 1.58009,-1.6834537 0,-0.9295684 -0.70697,-1.6831009 -1.58009,-1.6831009 -0.87277,0 -1.58009,0.7531797 -1.58044,1.6831009 3.5e-4,0.930274 0.70767,1.6834537 1.58044,1.6834537" style="fill:#feffff;fill-opacity:1;fill-rule:nonzero;stroke:none;stroke-width:0.352777" id="path2842"></path><path d="m 110.72846,21.745798 c -0.0751,-0.02328 -0.14887,-0.03881 -0.22331,-0.0568 -0.0699,-0.02399 -0.15875,-0.08925 -0.25717,-0.24518 -0.1517,-0.238125 -0.30198,-0.676627 -0.40464,-1.32468 -0.10407,-0.648052 -0.1651,-1.505301 -0.1651,-2.591502 V 8.1546963 l -0.32596,0.094192 -2.64195,0.7644686 v 0 c -0.0526,0.01517 -0.11183,0.028928 -0.18839,0.076906 -0.0384,0.025047 -0.0836,0.063853 -0.11924,0.1224138 -0.0353,0.058208 -0.054,0.1337026 -0.0533,0.1982609 -0.002,0.080433 0.0318,0.1703914 0.0752,0.2240136 0.066,0.082903 0.12664,0.1086554 0.17427,0.1329971 0.043,0.020461 0.0808,0.035278 0.11677,0.050447 0.21061,0.1245305 0.4004,0.2042587 0.50588,0.2875137 0.055,0.04233 0.0871,0.07902 0.10866,0.119944 0.0212,0.04092 0.0374,0.09207 0.0377,0.186267 v 7.695133 c 0.001,1.169104 -0.0205,1.990723 -0.13335,2.534 -0.0561,0.271639 -0.13194,0.470252 -0.2293,0.618066 -0.0967,0.146403 -0.21308,0.250825 -0.38347,0.339372 -0.11924,0.05256 -0.22684,0.09913 -0.32808,0.166864 -0.0522,0.03563 -0.10443,0.07832 -0.1517,0.14358 -0.0473,0.06385 -0.084,0.160161 -0.0825,0.256822 0,0.05821 0.01,0.132997 0.0522,0.206375 0.031,0.05468 0.0797,0.09878 0.12418,0.123119 0.13758,0.06738 0.20673,0.04551 0.27587,0.05115 0.29175,-7.06e-4 0.77858,-0.05256 2.01119,-0.05256 0.69391,-3.53e-4 1.58467,0.05221 2.01189,0.05256 0.0783,-7.06e-4 0.16474,-0.0067 0.25752,-0.03246 0.0466,-0.01411 0.096,-0.03104 0.15487,-0.07479 l 0.0892,-0.100188 c 0.0279,-0.04586 0.0476,-0.11042 0.0473,-0.173214 0.002,-0.09631 -0.0402,-0.206022 -0.10019,-0.270228 -0.091,-0.09737 -0.17745,-0.123472 -0.25506,-0.14993" style="fill:#feffff;fill-opacity:1;fill-rule:nonzero;stroke:none;stroke-width:0.352777" id="path2846"></path><path d="m 113.89002,12.443516 c 0.26776,-1.081968 0.69815,-1.930751 1.31092,-2.5216528 0.67522,-0.6494632 1.5815,-1.0107072 2.81975,-1.0124711 1.08585,3.528e-4 2.01859,0.3630079 2.67864,1.01106 0.60819,0.5990159 0.9966,1.4428599 1.0541,2.5230639 z m 10.95727,4.438998 c -7.1e-4,-0.100542 -0.0155,-0.219075 -0.0949,-0.333728 -0.079,-0.117827 -0.2286,-0.183444 -0.35772,-0.178505 -0.19014,-0.0025 -0.34607,0.114653 -0.42721,0.233892 -0.084,0.120649 -0.12312,0.246591 -0.14252,0.361949 h -3.6e-4 c -0.0258,0.1651 -0.15487,0.5588 -0.38699,1.018116 -0.34784,0.693913 -0.92781,1.563509 -1.74237,2.250014 -0.81597,0.686857 -1.85843,1.194151 -3.16582,1.19521 -1.84891,-0.0064 -3.03177,-0.743655 -3.8033,-1.944509 -0.76941,-1.20403 -1.10172,-2.911825 -1.10066,-4.81647 -3.6e-4,-0.316089 0.0459,-0.681566 0.10195,-1.015999 h 10.90012 l -0.0243,-0.298802 c -0.14957,-1.859137 -1.0287,-3.292119 -2.26941,-4.2354457 -1.24072,-0.9454434 -2.83598,-1.4178123 -4.4584,-1.4185179 -2.1904,-0.00106 -3.97334,0.9369768 -5.19641,2.3233916 -1.22344,1.386415 -1.89618,3.215213 -1.89689,5.014731 0,2.070803 0.72002,3.994498 1.9311,5.403844 1.21003,1.409346 2.91818,2.303636 4.87151,2.302931 1.66828,0 3.21521,-0.467077 4.46475,-1.343024 1.24848,-0.874888 2.1978,-2.161114 2.66417,-3.775776 0.0783,-0.233186 0.133,-0.490713 0.13371,-0.743302" style="fill:#feffff;fill-opacity:1;fill-rule:nonzero;stroke:none;stroke-width:0.352777" id="path2850"></path><path d="m 125.38181,5.2583583 c 0.7239,0 1.26682,0.6314715 1.26682,1.4128734 0,0.781402 -0.54292,1.4128735 -1.25624,1.4022902 -0.744,0 -1.29645,-0.6208882 -1.29645,-1.4128735 0,-0.7708186 0.55245,-1.4022901 1.27599,-1.4022901 z m 0,-0.2998608 c -0.9144,0 -1.6383,0.7492992 -1.6383,1.7021509 0,0.9740184 0.7239,1.7233176 1.6383,1.7233176 0.91475,0 1.61819,-0.7492992 1.61819,-1.7233176 0,-0.9528517 -0.70344,-1.7021509 -1.60761,-1.7021509 z m -0.29104,1.0816155 c 0.0497,-0.011289 0.12065,-0.021519 0.24095,-0.021519 0.29174,0 0.40181,0.1284109 0.40181,0.299508 0,0.2035525 -0.21096,0.2779886 -0.43215,0.2779886 h -0.21061 z m 0,0.8131519 h 0.20073 c 0.23107,0 0.34184,0.085725 0.38206,0.2892774 0.0501,0.2353026 0.09,0.3958163 0.14111,0.4603745 h 0.32103 c -0.0406,-0.064558 -0.0804,-0.1714498 -0.13089,-0.438855 -0.0501,-0.2356553 -0.13052,-0.3750024 -0.27128,-0.4392079 v -0.021167 c 0.17074,-0.064205 0.32173,-0.2031998 0.32173,-0.4176885 0,-0.1714498 -0.0702,-0.3104441 -0.17109,-0.3852329 -0.0998,-0.085725 -0.24095,-0.139347 -0.52212,-0.139347 -0.23106,0 -0.41204,0.021519 -0.58314,0.053622 v 1.7878758 h 0.31186 z" style="fill:#feffff;fill-opacity:1;fill-rule:evenodd;stroke:none;stroke-width:0.352777" id="path2854"></path><path d="m 80.119485,12.310978 c 0.268111,-1.081615 0.698146,-1.930045 1.310921,-2.5209472 0.675216,-0.6494632 1.581501,-1.0103545 2.819397,-1.0124711 1.085848,7.055e-4 2.018945,0.3630079 2.678991,1.01106 0.608188,0.5990163 0.996596,1.4425063 1.054099,2.5223583 z m 10.956913,4.439703 c -7.06e-4,-0.09984 -0.01517,-0.218369 -0.09454,-0.333374 -0.07902,-0.118181 -0.228953,-0.183444 -0.358069,-0.178858 -0.190147,-0.0025 -0.346075,0.114652 -0.427214,0.234244 -0.08361,0.120297 -0.122766,0.245886 -0.142169,0.361597 -0.02575,0.165452 -0.155222,0.558799 -0.38735,1.018115 -0.347838,0.694266 -0.928157,1.56351 -1.74272,2.250014 -0.815974,0.686858 -1.858079,1.194505 -3.165824,1.19521 -1.848907,-0.006 -3.031416,-0.743655 -3.802941,-1.944509 -0.769054,-1.204029 -1.101723,-2.911824 -1.100312,-4.816469 -3.53e-4,-0.316089 0.04551,-0.681214 0.101247,-1.014941 h 8.32731 v -7.06e-4 h 2.573511 l -0.02434,-0.299155 C 90.683404,11.362712 89.80393,9.9297306 88.563565,8.9864039 87.322494,8.0409605 85.726882,7.5685915 84.104458,7.567886 81.914064,7.5668277 80.131127,8.5052155 78.9084,9.8912779 78.280456,10.602477 77.79821,11.430446 77.47683,12.310978 h -7.752284 l -0.07479,0.07514 c -0.0092,0.0099 -0.06174,0.06244 -0.118181,0.153105 -0.05468,0.09066 -0.120297,0.223661 -0.121708,0.402519 -0.0039,0.172508 0.08114,0.3683 0.237419,0.503766 l 0.01517,0.01976 0.04692,0.04339 c 0.01976,0.01129 0.04092,0.03528 0.09948,0.04798 v 3.53e-4 c 0.598311,0.150988 1.060449,0.275872 1.405465,0.413102 0.258586,0.102306 0.448733,0.210608 0.588433,0.333727 0.206728,0.184856 0.326672,0.402872 0.409927,0.791986 0.08114,0.386997 0.107597,0.931685 0.107245,1.681337 v 2.233433 c -0.01799,0.48648 -0.171097,0.866422 -0.423333,1.189213 -0.377472,0.483658 -1.001888,0.82691 -1.70709,1.038929 -0.704144,0.213078 -1.482018,0.297039 -2.143475,0.296686 -2.163584,-0.0018 -3.870321,-0.73413 -5.049303,-2.070803 -1.177924,-1.337732 -1.841145,-3.30376 -1.841851,-5.823649 -3.53e-4,-2.357612 0.508705,-4.4037204 1.577268,-5.8444633 1.069974,-1.4386262 2.695219,-2.3092808 5.047539,-2.3131613 1.215318,-3.528e-4 2.454978,0.3386663 3.483676,0.9380351 1.03011,0.5993688 1.844321,1.4555595 2.239078,2.4761445 l 0.0011,0.00247 -3.53e-4,-0.00106 c 0.06703,0.1700387 0.09878,0.2917469 0.128058,0.3912301 0.01587,0.0508 0.02752,0.095603 0.06068,0.1591026 0.01729,0.031397 0.04233,0.070908 0.08961,0.1086554 0.04586,0.038453 0.118181,0.064558 0.178506,0.063147 0.116416,-0.00176 0.194027,-0.058914 0.243416,-0.1054804 0.0755,-0.073378 0.117122,-0.1492249 0.155575,-0.2261303 0.03739,-0.076906 0.06632,-0.1548693 0.0889,-0.2268359 L 75.180954,6.6425509 75.044782,6.5236649 C 73.609331,5.2762441 70.758184,4.2778841 67.027916,4.2736507 c -1.740956,0.00247 -3.96169,0.7574131 -5.774613,2.2553059 -1.810806,1.4950706 -3.209922,3.7616654 -3.208158,6.7433394 -0.0018,2.911119 1.151819,5.295542 2.949925,6.932429 1.797753,1.638651 4.231917,2.539644 6.808956,2.539997 2.712153,0.0021 5.032017,-0.784577 7.249928,-2.447922 l 0.109361,-0.0822 v -5.533314 c 0.0042,-0.383116 0.09525,-0.574674 0.249414,-0.735893 0.155222,-0.158397 0.410633,-0.281517 0.74436,-0.3937 0.03775,-0.0078 0.07444,-0.01693 0.11042,-0.02999 h 0.87524 c -0.08678,0.457905 -0.131586,0.92216 -0.131586,1.384298 0,2.071157 0.720019,3.994499 1.931104,5.403845 1.210026,1.409345 2.918174,2.303989 4.871503,2.303283 1.668637,0 3.215566,-0.46743 4.465103,-1.343376 1.248832,-0.874535 2.198156,-2.161114 2.664528,-3.775424 0.07832,-0.233538 0.132291,-0.491419 0.132997,-0.743655" style="fill:#feffff;fill-opacity:1;fill-rule:nonzero;stroke:none;stroke-width:0.352777" id="path2858"></path></g></svg>